<?xml version="1.0" encoding="UTF-8"?>
<!DOCTYPE svg PUBLIC "-//W3C//DTD SVG 1.1//EN" "http://www.w3.org/Graphics/SVG/1.1/DTD/svg11.dtd">
<!-- Creator: CorelDRAW 2021 (64-Bit) -->
<svg xmlns="http://www.w3.org/2000/svg" xml:space="preserve" width="0.4765in" height="0.4765in" version="1.1" style="shape-rendering:geometricPrecision; text-rendering:geometricPrecision; image-rendering:optimizeQuality; fill-rule:evenodd; clip-rule:evenodd"
viewBox="0 0 48.77 48.77"
 xmlns:xlink="http://www.w3.org/1999/xlink"
 xmlns:xodm="http://www.corel.com/coreldraw/odm/2003">
 <defs>
  <style type="text/css">
   <![CDATA[
    .fil1 {fill:#1E2220}
    .fil0 {fill:#F5F7FA}
   ]]>
  </style>
 </defs>
 <g id="Layer_x0020_1">
  <metadata id="CorelCorpID_0Corel-Layer"/>
  <g id="_2074828159776">
   <rect class="fil0" x="-0" y="-0" width="48.77" height="48.77" rx="5.38" ry="6.82"/>
   <path class="fil1" d="M16.83 14.6c-2.26,1.57 -2.29,7.45 -1.44,9.74 1.04,2.78 3.69,4.53 7.32,4.96 -0.47,1.2 -0.64,0.67 -0.92,3 -4.93,1.3 -5.39,-1.91 -6.87,-3.2 -0.54,-0.47 -1.87,-1.19 -2.83,-0.65 0.05,0.54 0.62,0.63 1,1.06 1.94,2.17 1.96,4.71 4.97,5.65 1.42,0.44 2.31,0.28 3.77,0.1l-0 3.91c2.07,0.1 5.76,0.06 7.93,0.02 -0,-2.12 0.19,-6.86 -0.27,-8.42 -0.19,-0.65 -0.51,-1.06 -0.63,-1.47 3.65,-0.41 6.21,-2.17 7.29,-4.89 0.89,-2.23 0.87,-8.19 -1.41,-9.8 0.1,-0.93 0.47,-1.38 0.45,-2.59 -0.02,-1.09 -0.29,-1.59 -0.49,-2.49 -1.03,0.11 -1.74,0.59 -2.34,1.09 -0.95,0.79 -0.99,1.11 -1.51,1.66 -0.11,0.12 -0.06,0.08 -0.16,0.15 -1.73,-1.09 -5.49,-1.1 -7.7,-0.75 -1.21,0.19 -1.34,0.42 -2.23,0.78 -0.24,-0.62 -1.1,-1.45 -1.55,-1.83 -0.66,-0.56 -1.23,-0.98 -2.33,-1.11 -0.2,0.9 -0.47,1.39 -0.49,2.49 -0.02,1.23 0.34,1.65 0.45,2.59z"/>
  </g>
 </g>
</svg>
