<?xml version="1.0" encoding="UTF-8"?>
<!DOCTYPE svg PUBLIC "-//W3C//DTD SVG 1.1//EN" "http://www.w3.org/Graphics/SVG/1.1/DTD/svg11.dtd">
<!-- Creator: CorelDRAW 2021 (64-Bit) -->
<svg xmlns="http://www.w3.org/2000/svg" xml:space="preserve" width="0.4765in" height="0.4765in" version="1.1" style="shape-rendering:geometricPrecision; text-rendering:geometricPrecision; image-rendering:optimizeQuality; fill-rule:evenodd; clip-rule:evenodd"
viewBox="0 0 37.1 37.1"
 xmlns:xlink="http://www.w3.org/1999/xlink"
 xmlns:xodm="http://www.corel.com/coreldraw/odm/2003">
 <defs>
  <style type="text/css">
   <![CDATA[
    .fil1 {fill:#1E2220}
    .fil0 {fill:#F5F7FA}
   ]]>
  </style>
 </defs>
 <g id="Layer_x0020_1">
  <metadata id="CorelCorpID_0Corel-Layer"/>
  <g id="_2074688683152">
   <rect class="fil0" x="-0" y="-0" width="37.1" height="37.1" rx="4.09" ry="5.19"/>
   <g>
    <path class="fil1" d="M17.65 14.59c5.15,-1.4 7.23,6.55 2.13,7.82 -5.63,1.4 -7.74,-6.29 -2.13,-7.82zm7.14 2.43l1.57 -0.44 0.02 9.71 -15.57 0.11 -0.11 -9.76 1.64 0.33c-2.08,11.06 14.88,10.15 12.46,0.06zm1.49 -6.16c0.17,2.23 0.28,1.65 -0.17,3.72 -4.03,0.19 -3.84,0.58 -3.53,-3.73l3.69 0.01zm-18.15 0.58l0 14.23c0,2.53 0.78,3.31 3.31,3.31l14.25 0c2.49,0 3.28,-0.8 3.28,-3.31l0 -14.23c0,-2.51 -0.8,-3.3 -3.3,-3.3l-14.23 0c-2.52,0 -3.31,0.78 -3.31,3.3z"/>
    <path class="fil0" d="M24.79 17.02c2.41,10.09 -14.54,11 -12.46,-0.06l-1.64 -0.33 0.11 9.76 15.57 -0.11 -0.02 -9.71 -1.57 0.44z"/>
    <path class="fil0" d="M17.65 14.59c-5.61,1.53 -3.5,9.22 2.13,7.82 5.1,-1.27 3.02,-9.22 -2.13,-7.82z"/>
    <path class="fil0" d="M22.59 10.84c-0.32,4.31 -0.51,3.92 3.53,3.73 0.44,-2.07 0.33,-1.49 0.17,-3.72l-3.69 -0.01z"/>
   </g>
  </g>
 </g>
</svg>
