<?xml version="1.0" encoding="UTF-8"?>
<!DOCTYPE svg PUBLIC "-//W3C//DTD SVG 1.1//EN" "http://www.w3.org/Graphics/SVG/1.1/DTD/svg11.dtd">
<!-- Creator: CorelDRAW 2021 (64-Bit) -->
<svg xmlns="http://www.w3.org/2000/svg" xml:space="preserve" width="0.4765in" height="0.4765in" version="1.1" style="shape-rendering:geometricPrecision; text-rendering:geometricPrecision; image-rendering:optimizeQuality; fill-rule:evenodd; clip-rule:evenodd"
viewBox="0 0 24.53 24.53"
 xmlns:xlink="http://www.w3.org/1999/xlink"
 xmlns:xodm="http://www.corel.com/coreldraw/odm/2003">
 <defs>
  <style type="text/css">
   <![CDATA[
    .str0 {stroke:#1E2220;stroke-width:0.15;stroke-miterlimit:2.61313}
    .fil1 {fill:#1E2220}
    .fil0 {fill:#F5F7FA}
   ]]>
  </style>
 </defs>
 <g id="Layer_x0020_1">
  <metadata id="CorelCorpID_0Corel-Layer"/>
  <g id="_2074766275504">
   <rect class="fil0" x="-0" y="-0" width="24.53" height="24.53" rx="2.7" ry="3.43"/>
   <g>
    <path class="fil1" d="M13.63 10.65l-0.01 -1.28 -3.08 0 0 9.27 3.08 0.01c0,-1.45 0,-2.89 0,-4.34 0,-0.69 -0.08,-1.36 0.26,-1.89 0.24,-0.38 0.66,-0.79 1.34,-0.82 1.51,-0.06 1.65,1.29 1.65,2.66 -0,1.46 0,2.93 0,4.39l3.08 0c0,-1.45 0,-2.89 0,-4.34 0,-1.41 0,-2.6 -0.67,-3.67 -0.98,-1.56 -3.2,-1.88 -4.6,-1.04 -0.31,0.19 -0.9,0.75 -1.06,1.06z"/>
    <polygon class="fil1 str0" points="5.74,18.64 8.83,18.65 8.83,9.37 5.75,9.37 "/>
    <path class="fil1" d="M6.82 4.97c-2.11,0.51 -1.41,3.64 0.97,3.07 2.05,-0.49 1.42,-3.64 -0.97,-3.07z"/>
   </g>
  </g>
 </g>
</svg>
