<?xml version="1.0" encoding="UTF-8"?>
<!DOCTYPE svg PUBLIC "-//W3C//DTD SVG 1.1//EN" "http://www.w3.org/Graphics/SVG/1.1/DTD/svg11.dtd">
<!-- Creator: CorelDRAW 2021 (64-Bit) -->
<svg xmlns="http://www.w3.org/2000/svg" xml:space="preserve" width="3.04209in" height="1.55149in" version="1.1" style="shape-rendering:geometricPrecision; text-rendering:geometricPrecision; image-rendering:optimizeQuality; fill-rule:evenodd; clip-rule:evenodd"
viewBox="0 0 4379.46 2233.56"
 xmlns:xlink="http://www.w3.org/1999/xlink"
 xmlns:xodm="http://www.corel.com/coreldraw/odm/2003">
 <defs>
  <style type="text/css">
   <![CDATA[
    .fil1 {fill:#F5F7FA}
    .fil2 {fill:#FEFEFE;fill-rule:nonzero}
    .fil3 {fill:#8B8D90;fill-rule:nonzero}
    .fil4 {fill:#D0D7E3;fill-rule:nonzero}
    .fil0 {fill:#F5F7FA;fill-rule:nonzero}
   ]]>
  </style>
    <clipPath id="id0">
     <path d="M-0 0l4379.46 0 0 2233.56 -4379.46 0 0 -2233.56z"/>
    </clipPath>
 </defs>
 <g id="Layer_x0020_1">
  <metadata id="CorelCorpID_0Corel-Layer"/>
  <g id="_2075028600336">
   <g style="clip-path:url(#id0)">
    <image x="-0" y="0" width="4379.46" height="2233.56" xlink:href="logo-main-dm_Images\logo-main-dm_ImgID1.png"/>
   </g>
   <g>
    <g>
     <g>
      <g>
       <path class="fil0" d="M397.27 1251.82l-292.03 290.07 -25.13 -25.3 292.03 -290.07 25.13 25.3zm-25.13 -25.3c6.97,-6.92 18.25,-6.87 25.19,0.11 6.94,6.98 6.91,18.27 -0.06,25.19l-25.13 -25.3zm81.19 0.3l-25.24 25.07 0 0 -0.81 -0.78 -0.83 -0.71 -0.86 -0.67 -0.88 -0.61 -0.91 -0.57 -0.91 -0.52 -0.96 -0.48 -0.96 -0.42 -0.98 -0.37 -1.01 -0.33 -1 -0.27 -1.06 -0.23 -1.03 -0.18 -1.04 -0.12 -1.05 -0.08 -1.05 -0.03 -1.08 0.02 -1.06 0.07 -1.04 0.12 -1.04 0.16 -1.03 0.23 -1.03 0.27 -1 0.32 -1.01 0.38 -0.95 0.4 -0.95 0.46 -0.96 0.53 -0.91 0.57 -0.89 0.61 -0.84 0.66 -0.86 0.73 -0.82 0.77 -25.13 -25.3 2.14 -2.02 2.2 -1.88 2.31 -1.77 2.37 -1.64 2.42 -1.5 2.47 -1.35 2.53 -1.25 2.61 -1.12 2.6 -0.96 2.66 -0.85 2.68 -0.71 2.7 -0.58 2.73 -0.45 2.74 -0.32 2.75 -0.18 2.72 -0.06 2.75 0.07 2.74 0.2 2.74 0.34 2.72 0.46 2.68 0.6 2.69 0.73 2.64 0.86 2.62 0.99 2.58 1.13 2.52 1.25 2.49 1.39 2.41 1.52 2.36 1.65 2.28 1.78 2.2 1.9 2.13 2.03 0 0zm0 0c6.94,6.99 6.91,18.27 -0.06,25.19 -6.97,6.92 -18.25,6.87 -25.19,-0.12l25.24 -25.07zm237.92 290.02l-263.16 -264.95 25.24 -25.07 263.16 264.95 -25.24 25.07zm25.24 -25.07c6.94,6.98 6.91,18.27 -0.06,25.19 -6.97,6.92 -18.25,6.87 -25.19,-0.11l25.24 -25.07zm-0.25 81.19l-25.13 -25.3 0 0 0.79 -0.83 0.7 -0.81 0.66 -0.85 0.64 -0.91 0.58 -0.93 0.52 -0.92 0.45 -0.92 0.44 -1 0.37 -0.99 0.32 -1 0.28 -1.03 0.22 -1.01 0.18 -1.04 0.13 -1.07 0.08 -1.05 0.03 -1.08 -0.02 -1.06 -0.07 -1.02 -0.12 -1.05 -0.18 -1.06 -0.22 -1.03 -0.28 -1.03 -0.32 -1.02 -0.36 -0.97 -0.41 -0.95 -0.46 -0.95 -0.52 -0.94 -0.56 -0.91 -0.63 -0.91 -0.65 -0.86 -0.69 -0.81 -0.78 -0.82 25.24 -25.07 2.01 2.13 1.92 2.25 1.76 2.3 1.62 2.35 1.5 2.43 1.37 2.48 1.25 2.54 1.11 2.6 0.97 2.63 0.84 2.64 0.71 2.68 0.58 2.7 0.45 2.7 0.32 2.74 0.19 2.78 0.05 2.75 -0.07 2.73 -0.2 2.75 -0.33 2.71 -0.46 2.71 -0.61 2.73 -0.73 2.66 -0.86 2.65 -1 2.61 -1.11 2.54 -1.27 2.56 -1.4 2.48 -1.5 2.39 -1.63 2.33 -1.78 2.3 -1.93 2.23 -2.02 2.11 0 0zm0 0c-6.97,6.92 -18.25,6.87 -25.19,-0.11 -6.94,-6.98 -6.91,-18.27 0.06,-25.19l25.13 25.3zm-317.16 264.76l292.03 -290.06 25.13 25.3 -292.03 290.06 0 0.01 -25.13 -25.31zm25.13 25.3c-6.97,6.92 -18.25,6.87 -25.19,-0.11 -6.94,-6.98 -6.91,-18.27 0.06,-25.19l25.13 25.3zm-81.2 -0.29l25.24 -25.07 0 -0.01 0.81 0.78 0.84 0.73 0.84 0.66 0.88 0.61 0.91 0.57 0.91 0.52 0.94 0.46 0.98 0.43 0.98 0.37 1 0.32 1.01 0.28 1.03 0.22 1.07 0.19 1.04 0.12 1.05 0.08 1.08 0.03 1.05 -0.02 1.03 -0.07 1.07 -0.13 1.04 -0.16 1.03 -0.23 1.01 -0.27 1.01 -0.32 1.01 -0.37 0.95 -0.4 0.96 -0.47 0.95 -0.52 0.9 -0.56 0.9 -0.62 0.86 -0.66 0.84 -0.72 0.82 -0.78 25.13 25.31 -2.14 2.01 -2.22 1.89 -2.3 1.76 -2.36 1.63 -2.43 1.51 -2.48 1.36 -2.53 1.24 -2.6 1.12 -2.61 0.96 -2.65 0.84 -2.68 0.71 -2.71 0.58 -2.72 0.45 -2.71 0.31 -2.77 0.19 -2.75 0.05 -2.73 -0.07 -2.75 -0.2 -2.73 -0.34 -2.7 -0.46 -2.7 -0.6 -2.69 -0.73 -2.65 -0.86 -2.62 -1 -2.56 -1.12 -2.54 -1.26 -2.49 -1.39 -2.41 -1.52 -2.36 -1.65 -2.3 -1.79 -2.19 -1.9 -2.13 -2.02 0 -0.01zm0 0.01c-6.94,-6.98 -6.91,-18.27 0.05,-25.19 6.97,-6.93 18.26,-6.88 25.19,0.11l-25.24 25.09zm-237.91 -290.03l263.16 264.95 -25.24 25.07 -263.16 -264.95 0 0 25.24 -25.07zm-25.24 25.07c-6.94,-6.98 -6.91,-18.27 0.06,-25.19 6.97,-6.92 18.25,-6.87 25.19,0.11l-25.24 25.07zm0.25 -81.19l25.13 25.3 0 0.01 -0.79 0.82 -0.7 0.81 -0.67 0.87 -0.63 0.89 -0.57 0.92 -0.53 0.93 -0.46 0.93 -0.43 0.99 -0.37 0.98 -0.32 1.01 -0.28 1.04 -0.22 1 -0.18 1.04 -0.13 1.07 -0.08 1.05 -0.03 1.08 0.02 1.06 0.07 1.02 0.12 1.05 0.18 1.07 0.22 1.03 0.27 1.01 0.32 1.03 0.37 0.99 0.4 0.95 0.46 0.94 0.52 0.95 0.56 0.9 0.63 0.91 0.65 0.86 0.69 0.81 0.78 0.82 -25.24 25.07 -2.01 -2.13 -1.92 -2.25 -1.76 -2.3 -1.62 -2.35 -1.51 -2.44 -1.36 -2.47 -1.25 -2.54 -1.12 -2.61 -0.97 -2.62 -0.83 -2.64 -0.71 -2.68 -0.58 -2.71 -0.45 -2.7 -0.32 -2.74 -0.19 -2.78 -0.05 -2.75 0.07 -2.73 0.2 -2.75 0.33 -2.71 0.46 -2.72 0.61 -2.73 0.73 -2.66 0.86 -2.64 1 -2.62 1.11 -2.55 1.26 -2.55 1.39 -2.47 1.51 -2.41 1.64 -2.34 1.77 -2.28 1.93 -2.23 2.02 -2.11 0 0.01zm0 -0.01c6.97,-6.92 18.25,-6.87 25.19,0.12 6.94,6.99 6.91,18.27 -0.06,25.19l-25.13 -25.31z"/>
      </g>
      <rect class="fil1" transform="matrix(3.92151 -3.96549 3.96549 3.92151 386.3 1328.98)" width="6.4" height="55.36" rx="1.01" ry="1.01"/>
      <path class="fil0" d="M241.44 1489.66l-36.13 37.24 37.24 36.13 37.24 36.12 36.13 -37.24 -37.24 -36.12 72.25 -74.48 37.24 36.12 -18.06 18.62 -36.13 37.24 37.25 36.13c12.41,12.04 24.82,24.08 37.23,36.13 43.06,-44.4 43.31,-30.28 -1.11,-73.37l18.06 -18.62c43.07,-44.41 43.31,-30.28 -1.11,-73.38l-37.24 -36.12c-44.41,-43.07 -30.3,-43.29 -73.38,1.11l-72.25 74.48zm241.52 198.14l36.12 -37.24 -37.24 -36.13 -36.13 37.24 37.25 36.12z"/>
     </g>
     <rect class="fil1" transform="matrix(3.0686 -3.0686 3.0686 3.0686 594.754 1828.54)" width="28.42" height="77.51" rx="1.6" ry="1.6"/>
     <rect class="fil1" transform="matrix(1.50186 -1.50186 1.58782 1.58782 535.555 1724.81)" width="28.42" height="77.51"/>
    </g>
    <path class="fil2" d="M435.52 246.26l122.03 0 0 183.05 61.01 0 0 -366.09 -244.06 0 0 366.09 61.01 0 0 -183.05zm0 -122.03l122.03 0 0 61.01 -122.03 0 0 -61.01zm427.11 61.01l-183.05 0 0 244.06 244.06 0 0 -366.09 -61.01 0 0 122.03zm0 183.05l-122.03 0 0 -122.03 122.03 0 0 122.03zm122.03 61.01l61.01 0 0 -244.06 -61.01 0 0 244.06zm0 -305.08l61.01 0 0 -61.02 -61.01 0 0 61.02zm122.03 61.01l83.89 244.06 76.27 0 83.89 -244.06 -76.27 0 -45.76 167.79 -45.76 -167.79 -76.27 0zm305.08 244.06l61.01 0 0 -244.06 -61.01 0 0 244.06zm0 -305.08l61.01 0 0 -61.02 -61.01 0 0 61.02zm183.05 61.01l-61.01 0 0 61.01 0 183.05 61.01 0 0 -183.05 122.03 0 0 183.05 61.01 0 0 -183.05 0 -61.01 -61.01 0 -122.03 0zm244.06 0l0 61.01 183.05 0 0 30.51 -183.05 0 0 152.54 244.06 0 0 -244.06 -244.06 0zm183.05 183.05l-122.03 0 0 -30.51 122.03 0 0 30.51z"/>
    <path class="fil3" d="M1230.33 1727.44c-5.44,2.28 -10.3,5.44 -14.02,9.73 -4.01,4 -7.44,8.58 -10.3,12.87 -1.43,1.72 -2.86,3.43 -4.01,5.15 -32.9,44.62 -62.36,91.82 -88.1,141.6 -10.59,20.59 -18.31,42.33 -23.46,65.22 -3.43,15.16 -4,29.74 -2.57,44.05 1.72,14.3 8.3,26.89 19.45,37.47 20.02,3.72 36.04,6.58 47.77,8.3 11.73,1.72 27.75,-0.28 48.63,-6.01 10.59,-2.57 21.17,-5.72 31.75,-9.15l3.43 -1.72c22.31,-7.15 41.48,-21.45 57.78,-43.19 16.02,-21.45 24.89,-43.48 26.03,-66.36 6.01,-24.6 0.29,-54.93 -17.16,-90.97 -17.73,-36.04 -39.76,-70.37 -65.79,-102.69 -0.57,-1.14 -1.43,-2.01 -2.57,-2.29 -1.14,0 -2.29,-0.57 -3.43,-1.14 -1.14,0 -2.28,-0.28 -3.43,-0.86zm-211.11 -283.19c0.57,-22.31 -1.71,-44.34 -6.57,-66.36 -1.14,-2.57 -1.72,-5.44 -1.43,-8.3 0.29,-2.86 1.14,-5.44 2.29,-8.29 8.87,-18.02 15.16,-36.9 19.16,-56.93 1.72,-6.29 3.43,-12.58 5.15,-19.45 3.15,-10.01 8.58,-18.59 15.73,-26.03 0,-0.57 0.28,-0.86 0.86,-1.43l21.74 -28.61c11.73,-18.02 25.46,-34.32 41.19,-49.49 3.43,-3.43 6.3,-7.73 9.15,-13.44 1.72,-2.29 3.72,-4.86 6.01,-8.3 15.45,-4.57 28.32,-12.58 38.33,-24.31 6.3,-6.58 12.87,-12.59 20.31,-17.74 16.02,-10.01 32.03,-20.31 47.77,-30.89 16.02,-10.59 32.61,-21.17 49.49,-31.75 37.76,-24.6 79.24,-35.47 123.86,-32.9 10.02,0.57 19.74,0.86 29.47,0.86l0.86 0c28.89,-1.14 58.07,4.29 86.96,16.02 2.86,2.86 5.72,6.01 8.58,9.15 12.87,11.73 24.31,26.03 34.32,42.91 14.59,27.17 16.88,56.07 7.44,86.1 -13.45,38.61 -28.32,76.66 -44.34,114.13 -1.72,4.29 -3.72,8.87 -6.01,13.44 -3.72,12.88 -11.44,24.03 -22.6,33.47 -3.72,-3.43 -6.01,-6.86 -6.29,-10.87 -0.29,-4.01 0.28,-7.73 1.43,-11.73l0 -1.72c3.72,-24.6 5.44,-49.49 4.86,-74.66l0 -15.16c0.57,-14.3 -1.14,-28.61 -4.86,-42.62 -1.72,-6.58 -3.43,-11.15 -5.15,-13.73 -1.71,-2.58 -3.72,-3.72 -5.72,-3.72 -2.29,0 -5.15,0.57 -8.58,1.43 -6.01,2.29 -14.87,2.86 -26.6,1.72 -29.75,-3.72 -55.49,0 -77.52,11.44 -22.31,11.44 -43.48,26.03 -64.36,44.06 -6,4.29 -12.3,9.15 -18.31,14.02 -7.72,5.72 -15.16,11.73 -21.74,17.73 -10.59,8.86 -21.46,17.45 -32.61,26.03 -2.86,1.71 -5.72,3.72 -8.58,5.72 -2.86,2.29 -4.57,4.86 -5.72,7.73 -5.72,12.3 -13.44,21.74 -23.46,28.32l-5.15 3.43c-21.17,16.3 -33.47,37.47 -36.9,63.79 -1.14,6.58 -3.43,12.88 -6.58,18.31 -5.72,14.02 -3.43,29.47 7.15,46.63 10.3,16.88 25.17,30.61 44.62,40.62 1.14,10.58 4.86,19.45 10.87,26.89 6.3,7.15 13.16,13.73 21.17,20.02 6.01,4.86 12.02,10.3 17.45,16.02 15.73,16.02 29.17,33.47 40.33,51.78 12.3,20.6 26.03,40.05 40.9,57.78l20.31 25.17c12.87,18.6 23.46,37.19 31.75,56.35 2.29,4.86 4.58,9.73 6.87,14.02 8.86,19.16 16.87,38.61 24.03,58.64 7.44,20.31 11.73,41.19 13.44,62.93 0.57,4.58 0.86,8.87 0.86,13.44 0.57,10.02 1.43,19.74 2.57,29.47 5.72,53.49 -8.58,100.69 -42.62,141.59 -4.01,4.86 -8.01,10.3 -11.73,15.73 -8.59,11.73 -18.02,22.6 -28.61,32.9 -35.76,35.19 -78.38,52.63 -128.15,52.63 -10.01,0 -20.02,0.29 -29.46,0.86 -19.45,2.28 -39.48,1.43 -60.36,-2.58 -34.61,-7.72 -64.07,-21.45 -88.68,-41.48 -24.6,-19.74 -42.91,-46.91 -54.63,-81.53 -5.44,-14.02 -6.3,-28.03 -2.29,-42.05 3.15,-12.87 5.15,-26.03 5.72,-39.47 0.57,-3.15 0.86,-6.58 0.86,-10.02 5.44,-40.05 19.16,-77.24 41.19,-111.27 16.59,-28.03 36.04,-53.49 58.07,-76.38 22.03,-22.88 45.77,-44.62 70.94,-65.22 4.86,-4.57 10.3,-9.44 15.73,-14.3 2.29,-2.29 4.86,-4.58 7.73,-6.87 -14.02,-24.6 -31.18,-46.05 -51.21,-64.36 -28.6,-31.47 -54.63,-64.65 -78.66,-99.83 -10.58,-15.16 -21.74,-30.03 -32.9,-45.2 -5.44,-7.44 -8.58,-15.45 -9.15,-24.31zm711.7 174.21c-15.73,10.58 -22.03,19.16 -18.88,25.74 2.86,6.29 7.72,8.87 13.73,7.73 6.3,-0.86 12.87,-2.86 20.6,-5.44 7.44,-2.29 18.88,-6.86 34.32,-12.87 15.45,-6.3 28.89,-15.73 40.62,-28.61l13.44 -14.88c9.44,-9.15 18.02,-18.88 25.46,-29.46 7.73,-10.58 13.16,-22.6 16.31,-36.04 -2.58,-0.57 -5.15,-0.86 -7.44,-0.86 -7.73,-0.57 -13.73,-0.86 -18.02,-1.14 -4.29,-0.28 -8.01,0.29 -11.44,1.72 -3.15,1.43 -7.73,3.43 -13.15,6.3 -14.59,7.15 -28.32,15.44 -40.91,24.6 -12.3,9.15 -22.6,21.74 -30.32,37.19 -5.15,10.87 -13.16,19.45 -24.31,26.03zm-23.46 72.08c-34.9,-2.86 -53.78,12.3 -57.21,45.2 -1.14,7.44 -3.15,14.31 -6.57,21.17 -4.58,9.44 -6.58,19.45 -6.01,30.03 7.44,7.73 16.3,11.44 26.89,10.87 38.61,14.02 77.24,11.73 115.56,-6.58 22.6,-10.01 44.63,-20.31 66.36,-31.18 14.59,-7.73 29.18,-15.16 44.34,-22.6 1.14,-0.57 2.29,-0.86 3.43,-0.86 46.91,-26.03 95.54,-54.92 145.88,-86.11 7.73,-11.15 19.45,-16.02 35.19,-14.3 15.44,1.72 30.32,9.73 44.34,24.31 -18.02,23.45 -44.91,49.49 -81.24,77.8 -8.58,7.44 -14.59,15.73 -18.59,25.18 -3.15,8.86 -7.73,15.16 -13.44,18.59 -18.88,10.59 -36.9,24.31 -54.35,41.77 -17.45,17.45 -56.64,40.33 -118.14,69.22 -61.5,28.61 -101.83,45.77 -121.57,51.49 -12.87,2.86 -25.74,4.01 -38.61,3.43 -10.59,0 -20.31,0.86 -29.18,2.28 -32.9,-8.29 -62.07,-14.87 -87.53,-19.45 -25.46,-4.86 -47.2,-22.6 -64.93,-53.2l-3.43 -20.31 -10.01 -48.63c-2.29,-14.3 -1.14,-28.89 3.15,-43.48 0.57,-1.14 0.86,-2.58 0.86,-4.29 6.3,-24.6 14.88,-48.06 26.03,-70.37l10.01 -25.17c12.87,-26.6 28.61,-51.2 46.91,-73.52 0.57,-1.72 1.43,-3.15 2.58,-4.29 1.14,-1.72 2.57,-3.15 4.29,-4.29 1.14,-0.57 2.28,-1.14 3.43,-2 1.14,-0.86 1.43,-1.72 1.43,-2.86 8.01,-20.31 20.02,-36.61 36.04,-49.49 8.01,-6.86 15.16,-14.02 22.03,-21.74 17.16,-22.03 37.19,-40.05 59.5,-54.92 22.31,-14.87 45.77,-28.03 70.37,-39.76 14.02,-6.87 28.89,-10.02 45.2,-9.44 7.73,0 15.73,-0.57 23.46,-1.72 12.3,-2.57 25.74,-2.86 40.33,-0.57 6.01,2.58 12.59,5.44 19.16,8.3 15.73,6.58 31.47,14.59 47.77,23.46 16.31,8.86 30.9,20.88 44.34,36.04 1.71,25.17 -0.86,48.91 -8.01,71.51 -6.86,22.6 -21.45,43.19 -43.76,61.79 -24.03,18.88 -48.63,36.04 -73.81,51.49 -25.17,15.44 -52.91,26.6 -82.95,33.75 -21.74,4.01 -43.48,5.15 -64.65,3.43l-4.86 0zm330.96 201.09l-4.86 -16.59c-3.43,-11.73 -7.15,-23.17 -11.16,-34.32 -4.86,-18.02 -6.86,-35.47 -5.72,-52.35 1.14,-17.17 3.72,-34.04 7.44,-50.92 1.72,-8.3 3.15,-16.59 4.29,-25.17 7.73,-38.33 20.88,-74.37 39.48,-108.13 17.73,-39.47 41.76,-74.95 72.08,-106.41 34.61,-29.47 72.08,-54.92 112.99,-76.09 19.45,-10.59 41.76,-15.73 66.65,-15.45 24.89,0.29 46.91,5.15 65.79,14.59 10.01,4.01 18.02,13.73 24.31,29.18 -16.31,-1.43 -33.18,-0.57 -50.63,3.43 -17.73,4 -32.32,11.44 -44.05,22.6l-21.74 30.32c-32.04,40.04 -61.22,82.09 -88.11,125.58 -26.89,43.48 -46.62,91.25 -59.49,143.31 -2.86,16.88 1.14,32.04 11.73,46.06 27.46,16.87 55.49,17.45 84.67,1.71 24.03,-11.73 47.48,-24.31 70.37,-37.76 24.6,-14.58 50.06,-27.74 76.38,-40.04 7.72,-4.01 14.3,-9.73 20.02,-16.88 3.43,-4.01 7.72,-6.29 12.87,-7.44 5.44,-1.14 11.15,-1.72 17.16,-1.72 5.15,0 10.01,-0.28 14.87,-0.86 4.58,-0.57 8.3,-2.29 11.16,-5.15 6.86,-6.01 12.01,-10.87 15.44,-14.02 3.72,-3.43 17.16,-11.73 40.05,-24.89 22.88,-13.15 47.77,-20.59 74.37,-22.31 9.15,6.29 14.02,13.73 14.87,22.88 0.86,8.87 0,18.02 -2.29,27.46 -6.57,26.89 -20.31,49.2 -40.9,67.23 -10.01,8.29 -18.02,14.87 -23.45,20.02 -5.72,5.15 -10.3,9.44 -14.31,13.44 -4.57,4.29 -9.73,9.44 -15.44,14.59 -6.01,5.43 -15.16,12.87 -27.18,23.17 -6.86,5.43 -14.02,10.58 -22.03,14.87 -12.87,6.86 -23.17,14.87 -30.9,24.31 -4,3.43 -7.44,5.44 -10.58,6.01 -2.86,0.57 -5.44,0.86 -7.15,0.86l-1.43 0c-56.64,37.48 -114.42,65.79 -173.63,85.53 -22.31,1.43 -44.34,0.57 -66.08,-3.43 -9.16,-0.57 -17.74,-1.43 -26.03,-2.57 -16.88,-2.86 -31.18,-9.15 -42.91,-19.17 -10.58,-9.15 -22.6,-15.16 -36.04,-18.59 -3.15,-3.72 -6.29,-8.01 -9.15,-12.59 -5.44,-10.01 -12.87,-18.02 -21.74,-24.31zm471.7 -89.53c-1.14,-9.44 -0.29,-19.45 2.57,-29.46 16.31,-51.78 31.75,-104.41 46.91,-157.33 15.16,-53.21 27.74,-106.99 37.76,-161.91l0 -0.86c0.57,-4 1.43,-7.72 2.57,-11.73 1.14,-3.72 3.43,-7.44 6.58,-10.87 12.3,-1.14 22.31,-3.15 30.32,-5.72 21.74,-2.86 34.32,-4.01 38.04,-3.15 3.72,0.86 5.44,5.44 5.44,14.02 0,6.01 -0.86,12.02 -2.57,17.45 -1.14,5.72 -1.72,11.44 -2,17.74 -0.29,6 1.43,12.58 5.43,19.16 22.89,-10.58 42.91,-20.02 60.36,-28.03 17.16,-8.01 40.04,-6.86 67.79,3.72 26.32,3.43 45.48,21.17 57.78,53.78 22.88,49.49 22.03,79.81 -3.15,90.4 -5.72,10.58 -10.01,18.31 -13.15,22.6 -2.86,4.57 -13.44,1.72 -30.9,-8.3 -17.73,-10.01 -30.9,-16.87 -39.76,-20.02 -4.58,5.44 -9.73,9.44 -16.02,11.73 -6.01,2 -12.88,3.72 -20.02,4.86 -1.72,0.57 -3.43,0.86 -5.15,0.86 -21.74,5.15 -40.33,16.59 -55.78,34.32 -15.16,18.02 -24.31,38.9 -27.18,62.94 -2.86,24.6 -5.72,49.2 -9.15,73.8 -4,22.31 -7.15,44.62 -9.15,66.94 -4,34.61 -15.16,66.65 -33.75,95.54 -14.31,6.87 -28.32,8.3 -41.77,4.58 -13.44,-3.43 -26.03,-10.01 -37.76,-19.74 -21.74,-18.31 -28.89,-42.34 -21.74,-72.09 6,-21.17 8.58,-42.91 7.44,-65.22zm570.1 -183.64c-15.73,10.58 -22.03,19.16 -18.88,25.74 2.86,6.29 7.72,8.87 13.73,7.73 6.3,-0.86 12.87,-2.86 20.6,-5.44 7.44,-2.29 18.88,-6.86 34.32,-12.87 15.45,-6.3 28.89,-15.73 40.62,-28.61l13.44 -14.88c9.44,-9.15 18.02,-18.88 25.46,-29.46 7.73,-10.58 13.16,-22.6 16.31,-36.04 -2.58,-0.57 -5.15,-0.86 -7.44,-0.86 -7.73,-0.57 -13.73,-0.86 -18.02,-1.14 -4.29,-0.28 -8.01,0.29 -11.44,1.72 -3.15,1.43 -7.73,3.43 -13.15,6.3 -14.59,7.15 -28.32,15.44 -40.91,24.6 -12.3,9.15 -22.6,21.74 -30.32,37.19 -5.15,10.87 -13.16,19.45 -24.31,26.03zm-23.46 72.08c-34.9,-2.86 -53.78,12.3 -57.21,45.2 -1.14,7.44 -3.15,14.31 -6.57,21.17 -4.58,9.44 -6.58,19.45 -6.01,30.03 7.44,7.73 16.3,11.44 26.89,10.87 38.61,14.02 77.24,11.73 115.56,-6.58 22.6,-10.01 44.63,-20.31 66.36,-31.18 14.59,-7.73 29.18,-15.16 44.34,-22.6 1.14,-0.57 2.29,-0.86 3.43,-0.86 46.91,-26.03 95.54,-54.92 145.88,-86.11 7.73,-11.15 19.45,-16.02 35.19,-14.3 15.44,1.72 30.32,9.73 44.34,24.31 -18.02,23.45 -44.91,49.49 -81.24,77.8 -8.58,7.44 -14.59,15.73 -18.59,25.18 -3.15,8.86 -7.73,15.16 -13.44,18.59 -18.88,10.59 -36.9,24.31 -54.35,41.77 -17.45,17.45 -56.64,40.33 -118.14,69.22 -61.5,28.61 -101.83,45.77 -121.57,51.49 -12.87,2.86 -25.74,4.01 -38.61,3.43 -10.59,0 -20.31,0.86 -29.18,2.28 -32.9,-8.29 -62.07,-14.87 -87.53,-19.45 -25.46,-4.86 -47.2,-22.6 -64.93,-53.2l-3.43 -20.31 -10.01 -48.63c-2.29,-14.3 -1.14,-28.89 3.15,-43.48 0.57,-1.14 0.86,-2.58 0.86,-4.29 6.3,-24.6 14.88,-48.06 26.03,-70.37l10.01 -25.17c12.87,-26.6 28.61,-51.2 46.91,-73.52 0.57,-1.72 1.43,-3.15 2.58,-4.29 1.14,-1.72 2.57,-3.15 4.29,-4.29 1.14,-0.57 2.28,-1.14 3.43,-2 1.14,-0.86 1.43,-1.72 1.43,-2.86 8.01,-20.31 20.02,-36.61 36.04,-49.49 8.01,-6.86 15.16,-14.02 22.03,-21.74 17.16,-22.03 37.19,-40.05 59.5,-54.92 22.31,-14.87 45.77,-28.03 70.37,-39.76 14.02,-6.87 28.89,-10.02 45.2,-9.44 7.73,0 15.73,-0.57 23.46,-1.72 12.3,-2.57 25.74,-2.86 40.33,-0.57 6.01,2.58 12.59,5.44 19.16,8.3 15.73,6.58 31.47,14.59 47.77,23.46 16.31,8.86 30.9,20.88 44.34,36.04 1.71,25.17 -0.86,48.91 -8.01,71.51 -6.86,22.6 -21.45,43.19 -43.76,61.79 -24.03,18.88 -48.63,36.04 -73.81,51.49 -25.17,15.44 -52.91,26.6 -82.95,33.75 -21.74,4.01 -43.48,5.15 -64.65,3.43l-4.86 0zm651.05 -64.36c11.73,4.29 18.59,8.3 20.02,12.02 1.72,3.72 1.14,10.02 -1.43,18.88 -1.14,3.43 -2,6.58 -2.57,10.02 -1.72,6.86 -2.29,13.44 -1.72,20.02 1.72,16.31 -4,30.04 -16.87,41.19 -48.06,82.67 -79.52,131.58 -94.69,146.75 -13.73,14.59 -28.32,28.61 -43.48,42.62 -18.88,17.45 -39.19,32.61 -60.36,46.05 -20.6,14.02 -38.62,28.32 -53.49,42.91l-3.43 3.15c-52.63,10.3 -94.96,-3.15 -127.29,-40.05 -5.15,-21.16 -6,-42.05 -3.15,-62.07 3.15,-20.02 7.44,-40.04 13.16,-59.49 6.58,-22.31 14.02,-56.07 21.74,-101.26 18.88,-28.03 30.61,-60.07 35.18,-96.4 4.01,-19.74 17.73,-65.5 41.48,-137.59 23.74,-72.09 38.05,-124.15 43.19,-156.76 12.3,-13.44 21.17,-28.89 26.89,-46.91 4.29,-12.87 10.3,-25.46 17.45,-37.76 -17.16,-6.58 -35.76,-10.87 -55.78,-12.87 -19.74,-2 -40.34,-3.15 -61.5,-3.72 -21.74,-0.57 -43.19,-2 -64.65,-4.29 -21.16,-2.29 -40.33,-7.15 -57.78,-15.16 2.28,-5.44 7.15,-11.15 14.3,-16.59 7.15,-5.72 14.59,-10.3 22.31,-14.31 7.44,-4 13.15,-6 17.16,-6 21.74,-2.01 43.19,-5.44 64.36,-10.02 20.88,-4.29 41.76,-7.44 62.93,-9.15 6.58,-1.14 13.44,-2 20.02,-2.57 15.16,-2.57 30.61,-3.43 46.05,-2.29 18.6,2 36.61,-3.43 54.64,-16.88 12.3,-26.89 25.74,-53.2 40.33,-78.66 9.44,-15.73 18.31,-31.75 26.6,-47.77 11.73,2 19.45,5.44 23.17,9.44 3.72,4.29 4.57,11.44 2.86,21.46 0,5.44 0.57,9.73 1.14,12.58 0.86,2.86 2.01,4.86 3.15,6.58 1.14,1.14 2,3.15 2.86,6.01 0.86,2.86 0.86,7.15 0.29,13.44 -0.57,2.29 -1.72,6.86 -4.01,14.02 -2.86,8.58 -5.44,17.16 -7.73,25.74 -2,8.58 -2.28,14.31 -0.57,17.16 3.15,3.43 5.72,7.15 7.44,11.73 1.14,3.43 2.57,6.01 4.29,8.29 1.43,2.29 3.72,3.15 6.58,2.58 15.16,-0.57 30.61,-0.29 46.91,0.86 20.02,2.29 39.47,2.29 57.78,0 9.44,-1.14 18.31,-1.43 26.32,-1.14 8.29,0.29 16.59,0.86 24.88,2 4.86,0.57 10.59,1.14 16.6,1.72 14.59,1.72 28.89,1.72 42.91,0 34.04,-5.72 68.08,-7.15 102.12,-4.29l15.16 0c10.58,1.14 21.45,1.14 32.61,0 27.46,-3.43 54.64,-2.86 81.53,1.72 26.6,4.57 53.2,10.01 79.52,16.88 1.72,0.28 3.43,0.86 5.72,1.43 8.58,1.72 17.73,3.15 27.74,4.29 15.16,0.57 29.18,3.15 42.34,7.44 13.15,4.58 22.31,14.31 27.17,29.47 -4.86,21.16 -23.45,29.46 -55.2,25.17 -54.35,-5.15 -143.6,-6.86 -267.75,-5.15 -124.43,1.72 -234.85,7.15 -331.53,16.02 -8.86,5.15 -15.44,12.01 -19.16,20.88 -4.01,8.87 -7.15,18.31 -9.44,27.75 -1.43,8.86 -4,16.3 -7.44,22.6 -10.01,20.59 -16.31,41.19 -18.31,62.07 -42.05,149.03 -67.79,237.14 -77.24,264.02 -4,9.44 -7.15,22.03 -10.01,37.47 -2.86,15.73 -5.44,30.61 -7.44,44.63 -1.14,4.29 -4.58,19.45 -10.3,45.2 -18.88,68.65 21.74,40.05 121.57,-86.39 15.73,-15.16 27.75,-27.18 36.61,-36.04 8.58,-8.87 24.31,-26.6 47.2,-52.64zm-39.48 352.7c-40.62,-36.32 -54.07,-82.09 -40.05,-137.3 14.02,-60.93 35.19,-118.71 63.5,-173.63 16.88,-34.61 37.48,-65.79 62.07,-93.82 2.29,-1.72 4.29,-3.72 6.01,-5.72 19.45,-20.31 39.76,-39.48 61.21,-57.5 21.17,-18.31 44.91,-32.9 71.23,-44.05 37.48,-14.59 74.37,-11.15 111.28,10.01 -6.58,0.57 -13.44,1.43 -20.02,2.58l-31.75 3.43c-19.16,9.44 -34.61,21.45 -46.91,36.04 -12.3,14.31 -23.17,30.04 -32.04,46.91 -7.72,14.02 -15.73,28.03 -24.31,42.62 -35.75,60.36 -66.93,123 -93.82,187.65 -6,15.16 -11.15,32.32 -15.16,51.2 5.72,-2.28 10.01,-5.15 13.15,-8.86 3.15,-3.43 6.01,-7.44 8.87,-11.15 1.14,-1.72 2.29,-3.43 4,-5.15 19.74,-25.74 40.9,-49.49 63.79,-71.23 25.17,-25.74 48.06,-52.92 68.65,-82.1l10.87 -14.3c11.15,-14.59 22.31,-28.61 33.46,-42.62 22.6,-27.46 43.48,-55.78 62.94,-84.67 0.57,-0.57 1.14,-1.43 1.72,-2.57 2.28,-2.86 3.72,-5.72 4.29,-9.15 4.29,-16.88 11.73,-31.47 22.03,-44.34 10.3,-12.87 22.6,-24.89 36.61,-36.04 7.15,-1.72 14.59,-3.43 22.6,-5.15 2.86,0.57 4.86,1.43 6.58,2.58 1.72,1.14 3.43,2.57 5.15,4 2.29,2.29 4.58,4.29 7.44,6.01 2.86,0 5.72,-0.57 8.59,-1.72 4.86,-1.14 10.29,-1.72 16.3,-2 5.72,-0.29 12.02,2 18.88,7.15 0.86,3.72 2.29,8.01 4.01,12.58l6.86 16.6c0.57,21.16 -4.86,40.62 -16.02,57.78 -2.29,3.43 -4.01,7.44 -5.15,11.73 -3.15,22.6 -10.01,43.76 -20.02,63.79l-13.44 33.47c-6,18.6 -14.02,36.33 -23.45,53.78l-13.44 26.89c-15.44,34.04 -25.46,68.94 -30.03,104.7 -2.29,34.04 -16.31,64.65 -42.05,92.11 -15.45,6.57 -31.76,10.87 -48.63,12.58 -16.59,1.72 -33.47,-1.71 -50.06,-10.01 -2.86,-5.72 -5.44,-11.44 -7.73,-17.73 -1.72,-6.58 -4.29,-12.59 -8.01,-18.02 -3.43,-5.15 -9.44,-8.29 -17.73,-9.44 -5.15,4.29 -10.3,9.15 -15.16,14.02 -10.59,11.15 -21.45,21.74 -32.9,31.18l-8.3 6.58c-17.73,16.3 -36.9,30.32 -56.92,42.05 -18.31,10.58 -39.19,14.3 -62.07,11.73 -5.44,-0.57 -11.44,-1.43 -17.45,-2.57 -3.43,0 -6.58,-0.29 -9.44,-0.86z"/>
    <path class="fil0" d="M1222.95 1693.59c-5.44,2.28 -10.3,5.44 -14.02,9.73 -4.01,4 -7.44,8.58 -10.3,12.87 -1.43,1.72 -2.86,3.43 -4.01,5.15 -32.9,44.62 -62.36,91.82 -88.1,141.6 -10.59,20.59 -18.31,42.33 -23.46,65.22 -3.43,15.16 -4,29.74 -2.57,44.05 1.72,14.3 8.3,26.89 19.45,37.47 20.02,3.72 36.04,6.58 47.77,8.3 11.73,1.72 27.75,-0.28 48.63,-6.01 10.59,-2.57 21.17,-5.72 31.75,-9.15l3.43 -1.72c22.31,-7.15 41.48,-21.45 57.78,-43.19 16.02,-21.45 24.89,-43.48 26.03,-66.36 6.01,-24.6 0.29,-54.93 -17.16,-90.97 -17.73,-36.04 -39.76,-70.37 -65.79,-102.69 -0.57,-1.14 -1.43,-2.01 -2.57,-2.29 -1.14,0 -2.29,-0.57 -3.43,-1.14 -1.14,0 -2.28,-0.28 -3.43,-0.86zm-211.11 -283.19c0.57,-22.31 -1.71,-44.34 -6.57,-66.36 -1.14,-2.57 -1.72,-5.44 -1.43,-8.3 0.29,-2.86 1.14,-5.44 2.29,-8.29 8.87,-18.02 15.16,-36.9 19.16,-56.93 1.72,-6.29 3.43,-12.58 5.15,-19.45 3.15,-10.01 8.58,-18.59 15.73,-26.03 0,-0.57 0.28,-0.86 0.86,-1.43l21.74 -28.61c11.73,-18.02 25.46,-34.32 41.19,-49.49 3.43,-3.43 6.3,-7.73 9.15,-13.44 1.72,-2.29 3.72,-4.86 6.01,-8.3 15.45,-4.57 28.32,-12.58 38.33,-24.31 6.3,-6.58 12.87,-12.59 20.31,-17.74 16.02,-10.01 32.03,-20.31 47.77,-30.89 16.02,-10.59 32.61,-21.17 49.49,-31.75 37.76,-24.6 79.24,-35.47 123.86,-32.9 10.02,0.57 19.74,0.86 29.47,0.86l0.86 0c28.89,-1.14 58.07,4.29 86.96,16.02 2.86,2.86 5.72,6.01 8.58,9.15 12.87,11.73 24.31,26.03 34.32,42.91 14.59,27.17 16.88,56.07 7.44,86.1 -13.45,38.61 -28.32,76.66 -44.34,114.13 -1.72,4.29 -3.72,8.87 -6.01,13.44 -3.72,12.88 -11.44,24.03 -22.6,33.47 -3.72,-3.43 -6.01,-6.86 -6.29,-10.87 -0.29,-4.01 0.28,-7.73 1.43,-11.73l0 -1.72c3.72,-24.6 5.44,-49.49 4.86,-74.66l0 -15.16c0.57,-14.3 -1.14,-28.61 -4.86,-42.62 -1.72,-6.58 -3.43,-11.15 -5.15,-13.73 -1.71,-2.58 -3.72,-3.72 -5.72,-3.72 -2.29,0 -5.15,0.57 -8.58,1.43 -6.01,2.29 -14.87,2.86 -26.6,1.72 -29.75,-3.72 -55.49,0 -77.52,11.44 -22.31,11.44 -43.48,26.03 -64.36,44.06 -6,4.29 -12.3,9.15 -18.31,14.02 -7.72,5.72 -15.16,11.73 -21.74,17.73 -10.59,8.86 -21.46,17.45 -32.61,26.03 -2.86,1.71 -5.72,3.72 -8.58,5.72 -2.86,2.29 -4.57,4.86 -5.72,7.73 -5.72,12.3 -13.44,21.74 -23.46,28.32l-5.15 3.43c-21.17,16.3 -33.47,37.47 -36.9,63.79 -1.14,6.58 -3.43,12.88 -6.58,18.31 -5.72,14.02 -3.43,29.47 7.15,46.63 10.3,16.88 25.17,30.61 44.62,40.62 1.14,10.58 4.86,19.45 10.87,26.89 6.3,7.15 13.16,13.73 21.17,20.02 6.01,4.86 12.02,10.3 17.45,16.02 15.73,16.02 29.17,33.47 40.33,51.78 12.3,20.6 26.03,40.05 40.9,57.78l20.31 25.17c12.87,18.6 23.46,37.19 31.75,56.35 2.29,4.86 4.58,9.73 6.87,14.02 8.86,19.16 16.87,38.61 24.03,58.64 7.44,20.31 11.73,41.19 13.44,62.93 0.57,4.58 0.86,8.87 0.86,13.44 0.57,10.02 1.43,19.74 2.57,29.47 5.72,53.49 -8.58,100.69 -42.62,141.59 -4.01,4.86 -8.01,10.3 -11.73,15.73 -8.59,11.73 -18.02,22.6 -28.61,32.9 -35.76,35.19 -78.38,52.63 -128.15,52.63 -10.01,0 -20.02,0.29 -29.46,0.86 -19.45,2.28 -39.48,1.43 -60.36,-2.58 -34.61,-7.72 -64.07,-21.45 -88.68,-41.48 -24.6,-19.74 -42.91,-46.91 -54.63,-81.53 -5.44,-14.02 -6.3,-28.03 -2.29,-42.05 3.15,-12.87 5.15,-26.03 5.72,-39.47 0.57,-3.15 0.86,-6.58 0.86,-10.02 5.44,-40.05 19.16,-77.24 41.19,-111.27 16.59,-28.03 36.04,-53.49 58.07,-76.38 22.03,-22.88 45.77,-44.62 70.94,-65.22 4.86,-4.57 10.3,-9.44 15.73,-14.3 2.29,-2.29 4.86,-4.58 7.73,-6.87 -14.02,-24.6 -31.18,-46.05 -51.21,-64.36 -28.6,-31.47 -54.63,-64.65 -78.66,-99.83 -10.58,-15.16 -21.74,-30.03 -32.9,-45.2 -5.44,-7.44 -8.58,-15.45 -9.15,-24.31zm711.7 174.21c-15.73,10.58 -22.03,19.16 -18.88,25.74 2.86,6.29 7.72,8.87 13.73,7.73 6.3,-0.86 12.87,-2.86 20.6,-5.44 7.44,-2.29 18.88,-6.86 34.32,-12.87 15.45,-6.3 28.89,-15.73 40.62,-28.61l13.44 -14.88c9.44,-9.15 18.02,-18.88 25.46,-29.46 7.73,-10.58 13.16,-22.6 16.31,-36.04 -2.58,-0.57 -5.15,-0.86 -7.44,-0.86 -7.73,-0.57 -13.73,-0.86 -18.02,-1.14 -4.29,-0.28 -8.01,0.29 -11.44,1.72 -3.15,1.43 -7.73,3.43 -13.15,6.3 -14.59,7.15 -28.32,15.44 -40.91,24.6 -12.3,9.15 -22.6,21.74 -30.32,37.19 -5.15,10.87 -13.16,19.45 -24.31,26.03zm-23.46 72.08c-34.9,-2.86 -53.78,12.3 -57.21,45.2 -1.14,7.44 -3.15,14.31 -6.57,21.17 -4.58,9.44 -6.58,19.45 -6.01,30.03 7.44,7.73 16.3,11.44 26.89,10.87 38.61,14.02 77.24,11.73 115.56,-6.58 22.6,-10.01 44.63,-20.31 66.36,-31.18 14.59,-7.73 29.18,-15.16 44.34,-22.6 1.14,-0.57 2.29,-0.86 3.43,-0.86 46.91,-26.03 95.54,-54.92 145.88,-86.11 7.73,-11.15 19.45,-16.02 35.19,-14.3 15.44,1.72 30.32,9.73 44.34,24.31 -18.02,23.45 -44.91,49.49 -81.24,77.8 -8.58,7.44 -14.59,15.73 -18.59,25.18 -3.15,8.86 -7.73,15.16 -13.44,18.59 -18.88,10.59 -36.9,24.31 -54.35,41.77 -17.45,17.45 -56.64,40.33 -118.14,69.22 -61.5,28.61 -101.83,45.77 -121.57,51.49 -12.87,2.86 -25.74,4.01 -38.61,3.43 -10.59,0 -20.31,0.86 -29.18,2.28 -32.9,-8.29 -62.07,-14.87 -87.53,-19.45 -25.46,-4.86 -47.2,-22.6 -64.93,-53.2l-3.43 -20.31 -10.01 -48.63c-2.29,-14.3 -1.14,-28.89 3.15,-43.48 0.57,-1.14 0.86,-2.58 0.86,-4.29 6.3,-24.6 14.88,-48.06 26.03,-70.37l10.01 -25.17c12.87,-26.6 28.61,-51.2 46.91,-73.52 0.57,-1.72 1.43,-3.15 2.58,-4.29 1.14,-1.72 2.57,-3.15 4.29,-4.29 1.14,-0.57 2.28,-1.14 3.43,-2 1.14,-0.86 1.43,-1.72 1.43,-2.86 8.01,-20.31 20.02,-36.61 36.04,-49.49 8.01,-6.86 15.16,-14.02 22.03,-21.74 17.16,-22.03 37.19,-40.05 59.5,-54.92 22.31,-14.87 45.77,-28.03 70.37,-39.76 14.02,-6.87 28.89,-10.02 45.2,-9.44 7.73,0 15.73,-0.57 23.46,-1.72 12.3,-2.57 25.74,-2.86 40.33,-0.57 6.01,2.58 12.59,5.44 19.16,8.3 15.73,6.58 31.47,14.59 47.77,23.46 16.31,8.86 30.9,20.88 44.34,36.04 1.71,25.17 -0.86,48.91 -8.01,71.51 -6.86,22.6 -21.45,43.19 -43.76,61.79 -24.03,18.88 -48.63,36.04 -73.81,51.49 -25.17,15.44 -52.91,26.6 -82.95,33.75 -21.74,4.01 -43.48,5.15 -64.65,3.43l-4.86 0zm330.96 201.09l-4.86 -16.59c-3.43,-11.73 -7.15,-23.17 -11.16,-34.32 -4.86,-18.02 -6.86,-35.47 -5.72,-52.35 1.14,-17.17 3.72,-34.04 7.44,-50.92 1.72,-8.3 3.15,-16.59 4.29,-25.17 7.73,-38.33 20.88,-74.37 39.48,-108.13 17.73,-39.47 41.76,-74.95 72.08,-106.41 34.61,-29.47 72.08,-54.92 112.99,-76.09 19.45,-10.59 41.76,-15.73 66.65,-15.45 24.89,0.29 46.91,5.15 65.79,14.59 10.01,4.01 18.02,13.73 24.31,29.18 -16.31,-1.43 -33.18,-0.57 -50.63,3.43 -17.73,4 -32.32,11.44 -44.05,22.6l-21.74 30.32c-32.04,40.04 -61.22,82.09 -88.11,125.58 -26.89,43.48 -46.62,91.25 -59.49,143.31 -2.86,16.88 1.14,32.04 11.73,46.06 27.46,16.87 55.49,17.45 84.67,1.71 24.03,-11.73 47.48,-24.31 70.37,-37.76 24.6,-14.58 50.06,-27.74 76.38,-40.04 7.72,-4.01 14.3,-9.73 20.02,-16.88 3.43,-4.01 7.72,-6.29 12.87,-7.44 5.44,-1.14 11.15,-1.72 17.16,-1.72 5.15,0 10.01,-0.28 14.87,-0.86 4.58,-0.57 8.3,-2.29 11.16,-5.15 6.86,-6.01 12.01,-10.87 15.44,-14.02 3.72,-3.43 17.16,-11.73 40.05,-24.89 22.88,-13.15 47.77,-20.59 74.37,-22.31 9.15,6.29 14.02,13.73 14.87,22.88 0.86,8.87 0,18.02 -2.29,27.46 -6.57,26.89 -20.31,49.2 -40.9,67.23 -10.01,8.29 -18.02,14.87 -23.45,20.02 -5.72,5.15 -10.3,9.44 -14.31,13.44 -4.57,4.29 -9.73,9.44 -15.44,14.59 -6.01,5.43 -15.16,12.87 -27.18,23.17 -6.86,5.43 -14.02,10.58 -22.03,14.87 -12.87,6.86 -23.17,14.87 -30.9,24.31 -4,3.43 -7.44,5.44 -10.58,6.01 -2.86,0.57 -5.44,0.86 -7.15,0.86l-1.43 0c-56.64,37.48 -114.42,65.79 -173.63,85.53 -22.31,1.43 -44.34,0.57 -66.08,-3.43 -9.16,-0.57 -17.74,-1.43 -26.03,-2.57 -16.88,-2.86 -31.18,-9.15 -42.91,-19.17 -10.58,-9.15 -22.6,-15.16 -36.04,-18.59 -3.15,-3.72 -6.29,-8.01 -9.15,-12.59 -5.44,-10.01 -12.87,-18.02 -21.74,-24.31zm471.7 -89.53c-1.14,-9.44 -0.29,-19.45 2.57,-29.46 16.31,-51.78 31.75,-104.41 46.91,-157.33 15.16,-53.21 27.74,-106.99 37.76,-161.91l0 -0.86c0.57,-4 1.43,-7.72 2.57,-11.73 1.14,-3.72 3.43,-7.44 6.58,-10.87 12.3,-1.14 22.31,-3.15 30.32,-5.72 21.74,-2.86 34.32,-4.01 38.04,-3.15 3.72,0.86 5.44,5.44 5.44,14.02 0,6.01 -0.86,12.02 -2.57,17.45 -1.14,5.72 -1.72,11.44 -2,17.74 -0.29,6 1.43,12.58 5.43,19.16 22.89,-10.58 42.91,-20.02 60.36,-28.03 17.16,-8.01 40.04,-6.86 67.79,3.72 26.32,3.43 45.48,21.17 57.78,53.78 22.88,49.49 22.03,79.81 -3.15,90.4 -5.72,10.58 -10.01,18.31 -13.15,22.6 -2.86,4.57 -13.44,1.72 -30.9,-8.3 -17.73,-10.01 -30.9,-16.87 -39.76,-20.02 -4.58,5.44 -9.73,9.44 -16.02,11.73 -6.01,2 -12.88,3.72 -20.02,4.86 -1.72,0.57 -3.43,0.86 -5.15,0.86 -21.74,5.15 -40.33,16.59 -55.78,34.32 -15.16,18.02 -24.31,38.9 -27.18,62.94 -2.86,24.6 -5.72,49.2 -9.15,73.8 -4,22.31 -7.15,44.62 -9.15,66.94 -4,34.61 -15.16,66.65 -33.75,95.54 -14.31,6.87 -28.32,8.3 -41.77,4.58 -13.44,-3.43 -26.03,-10.01 -37.76,-19.74 -21.74,-18.31 -28.89,-42.34 -21.74,-72.09 6,-21.17 8.58,-42.91 7.44,-65.22zm570.1 -183.64c-15.73,10.58 -22.03,19.16 -18.88,25.74 2.86,6.29 7.72,8.87 13.73,7.73 6.3,-0.86 12.87,-2.86 20.6,-5.44 7.44,-2.29 18.88,-6.86 34.32,-12.87 15.45,-6.3 28.89,-15.73 40.62,-28.61l13.44 -14.88c9.44,-9.15 18.02,-18.88 25.46,-29.46 7.73,-10.58 13.16,-22.6 16.31,-36.04 -2.58,-0.57 -5.15,-0.86 -7.44,-0.86 -7.73,-0.57 -13.73,-0.86 -18.02,-1.14 -4.29,-0.28 -8.01,0.29 -11.44,1.72 -3.15,1.43 -7.73,3.43 -13.15,6.3 -14.59,7.15 -28.32,15.44 -40.91,24.6 -12.3,9.15 -22.6,21.74 -30.32,37.19 -5.15,10.87 -13.16,19.45 -24.31,26.03zm-23.46 72.08c-34.9,-2.86 -53.78,12.3 -57.21,45.2 -1.14,7.44 -3.15,14.31 -6.57,21.17 -4.58,9.44 -6.58,19.45 -6.01,30.03 7.44,7.73 16.3,11.44 26.89,10.87 38.61,14.02 77.24,11.73 115.56,-6.58 22.6,-10.01 44.63,-20.31 66.36,-31.18 14.59,-7.73 29.18,-15.16 44.34,-22.6 1.14,-0.57 2.29,-0.86 3.43,-0.86 46.91,-26.03 95.54,-54.92 145.88,-86.11 7.73,-11.15 19.45,-16.02 35.19,-14.3 15.44,1.72 30.32,9.73 44.34,24.31 -18.02,23.45 -44.91,49.49 -81.24,77.8 -8.58,7.44 -14.59,15.73 -18.59,25.18 -3.15,8.86 -7.73,15.16 -13.44,18.59 -18.88,10.59 -36.9,24.31 -54.35,41.77 -17.45,17.45 -56.64,40.33 -118.14,69.22 -61.5,28.61 -101.83,45.77 -121.57,51.49 -12.87,2.86 -25.74,4.01 -38.61,3.43 -10.59,0 -20.31,0.86 -29.18,2.28 -32.9,-8.29 -62.07,-14.87 -87.53,-19.45 -25.46,-4.86 -47.2,-22.6 -64.93,-53.2l-3.43 -20.31 -10.01 -48.63c-2.29,-14.3 -1.14,-28.89 3.15,-43.48 0.57,-1.14 0.86,-2.58 0.86,-4.29 6.3,-24.6 14.88,-48.06 26.03,-70.37l10.01 -25.17c12.87,-26.6 28.61,-51.2 46.91,-73.52 0.57,-1.72 1.43,-3.15 2.58,-4.29 1.14,-1.72 2.57,-3.15 4.29,-4.29 1.14,-0.57 2.28,-1.14 3.43,-2 1.14,-0.86 1.43,-1.72 1.43,-2.86 8.01,-20.31 20.02,-36.61 36.04,-49.49 8.01,-6.86 15.16,-14.02 22.03,-21.74 17.16,-22.03 37.19,-40.05 59.5,-54.92 22.31,-14.87 45.77,-28.03 70.37,-39.76 14.02,-6.87 28.89,-10.02 45.2,-9.44 7.73,0 15.73,-0.57 23.46,-1.72 12.3,-2.57 25.74,-2.86 40.33,-0.57 6.01,2.58 12.59,5.44 19.16,8.3 15.73,6.58 31.47,14.59 47.77,23.46 16.31,8.86 30.9,20.88 44.34,36.04 1.71,25.17 -0.86,48.91 -8.01,71.51 -6.86,22.6 -21.45,43.19 -43.76,61.79 -24.03,18.88 -48.63,36.04 -73.81,51.49 -25.17,15.44 -52.91,26.6 -82.95,33.75 -21.74,4.01 -43.48,5.15 -64.65,3.43l-4.86 0zm651.05 -64.36c11.73,4.29 18.59,8.3 20.02,12.02 1.72,3.72 1.14,10.02 -1.43,18.88 -1.14,3.43 -2,6.58 -2.57,10.02 -1.72,6.86 -2.29,13.44 -1.72,20.02 1.72,16.31 -4,30.04 -16.87,41.19 -48.06,82.67 -79.52,131.58 -94.69,146.75 -13.73,14.59 -28.32,28.61 -43.48,42.62 -18.88,17.45 -39.19,32.61 -60.36,46.05 -20.6,14.02 -38.62,28.32 -53.49,42.91l-3.43 3.15c-52.63,10.3 -94.96,-3.15 -127.29,-40.05 -5.15,-21.16 -6,-42.05 -3.15,-62.07 3.15,-20.02 7.44,-40.04 13.16,-59.49 6.58,-22.31 14.02,-56.07 21.74,-101.26 18.88,-28.03 30.61,-60.07 35.18,-96.4 4.01,-19.74 17.73,-65.5 41.48,-137.59 23.74,-72.09 38.05,-124.15 43.19,-156.76 12.3,-13.44 21.17,-28.89 26.89,-46.91 4.29,-12.87 10.3,-25.46 17.45,-37.76 -17.16,-6.58 -35.76,-10.87 -55.78,-12.87 -19.74,-2 -40.34,-3.15 -61.5,-3.72 -21.74,-0.57 -43.19,-2 -64.65,-4.29 -21.16,-2.29 -40.33,-7.15 -57.78,-15.16 2.28,-5.44 7.15,-11.15 14.3,-16.59 7.15,-5.72 14.59,-10.3 22.31,-14.31 7.44,-4 13.15,-6 17.16,-6 21.74,-2.01 43.19,-5.44 64.36,-10.02 20.88,-4.29 41.76,-7.44 62.93,-9.15 6.58,-1.14 13.44,-2 20.02,-2.57 15.16,-2.57 30.61,-3.43 46.05,-2.29 18.6,2 36.61,-3.43 54.64,-16.88 12.3,-26.89 25.74,-53.2 40.33,-78.66 9.44,-15.73 18.31,-31.75 26.6,-47.77 11.73,2 19.45,5.44 23.17,9.44 3.72,4.29 4.57,11.44 2.86,21.46 0,5.44 0.57,9.73 1.14,12.58 0.86,2.86 2.01,4.86 3.15,6.58 1.14,1.14 2,3.15 2.86,6.01 0.86,2.86 0.86,7.15 0.29,13.44 -0.57,2.29 -1.72,6.86 -4.01,14.02 -2.86,8.58 -5.44,17.16 -7.73,25.74 -2,8.58 -2.28,14.31 -0.57,17.16 3.15,3.43 5.72,7.15 7.44,11.73 1.14,3.43 2.57,6.01 4.29,8.29 1.43,2.29 3.72,3.15 6.58,2.58 15.16,-0.57 30.61,-0.29 46.91,0.86 20.02,2.29 39.47,2.29 57.78,0 9.44,-1.14 18.31,-1.43 26.32,-1.14 8.29,0.29 16.59,0.86 24.88,2 4.86,0.57 10.59,1.14 16.6,1.72 14.59,1.72 28.89,1.72 42.91,0 34.04,-5.72 68.08,-7.15 102.12,-4.29l15.16 0c10.58,1.14 21.45,1.14 32.61,0 27.46,-3.43 54.64,-2.86 81.53,1.72 26.6,4.57 53.2,10.01 79.52,16.88 1.72,0.28 3.43,0.86 5.72,1.43 8.58,1.72 17.73,3.15 27.74,4.29 15.16,0.57 29.18,3.15 42.34,7.44 13.15,4.58 22.31,14.31 27.17,29.47 -4.86,21.16 -23.45,29.46 -55.2,25.17 -54.35,-5.15 -143.6,-6.86 -267.75,-5.15 -124.43,1.72 -234.85,7.15 -331.53,16.02 -8.86,5.15 -15.44,12.01 -19.16,20.88 -4.01,8.87 -7.15,18.31 -9.44,27.75 -1.43,8.86 -4,16.3 -7.44,22.6 -10.01,20.59 -16.31,41.19 -18.31,62.07 -42.05,149.03 -67.79,237.14 -77.24,264.02 -4,9.44 -7.15,22.03 -10.01,37.47 -2.86,15.73 -5.44,30.61 -7.44,44.63 -1.14,4.29 -4.58,19.45 -10.3,45.2 -18.88,68.65 21.74,40.05 121.57,-86.39 15.73,-15.16 27.75,-27.18 36.61,-36.04 8.58,-8.87 24.31,-26.6 47.2,-52.64zm-39.48 352.7c-40.62,-36.32 -54.07,-82.09 -40.05,-137.3 14.02,-60.93 35.19,-118.71 63.5,-173.63 16.88,-34.61 37.48,-65.79 62.07,-93.82 2.29,-1.72 4.29,-3.72 6.01,-5.72 19.45,-20.31 39.76,-39.48 61.21,-57.5 21.17,-18.31 44.91,-32.9 71.23,-44.05 37.48,-14.59 74.37,-11.15 111.28,10.01 -6.58,0.57 -13.44,1.43 -20.02,2.58l-31.75 3.43c-19.16,9.44 -34.61,21.45 -46.91,36.04 -12.3,14.31 -23.17,30.04 -32.04,46.91 -7.72,14.02 -15.73,28.03 -24.31,42.62 -35.75,60.36 -66.93,123 -93.82,187.65 -6,15.16 -11.15,32.32 -15.16,51.2 5.72,-2.28 10.01,-5.15 13.15,-8.86 3.15,-3.43 6.01,-7.44 8.87,-11.15 1.14,-1.72 2.29,-3.43 4,-5.15 19.74,-25.74 40.9,-49.49 63.79,-71.23 25.17,-25.74 48.06,-52.92 68.65,-82.1l10.87 -14.3c11.15,-14.59 22.31,-28.61 33.46,-42.62 22.6,-27.46 43.48,-55.78 62.94,-84.67 0.57,-0.57 1.14,-1.43 1.72,-2.57 2.28,-2.86 3.72,-5.72 4.29,-9.15 4.29,-16.88 11.73,-31.47 22.03,-44.34 10.3,-12.87 22.6,-24.89 36.61,-36.04 7.15,-1.72 14.59,-3.43 22.6,-5.15 2.86,0.57 4.86,1.43 6.58,2.58 1.72,1.14 3.43,2.57 5.15,4 2.29,2.29 4.58,4.29 7.44,6.01 2.86,0 5.72,-0.57 8.59,-1.72 4.86,-1.14 10.29,-1.72 16.3,-2 5.72,-0.29 12.02,2 18.88,7.15 0.86,3.72 2.29,8.01 4.01,12.58l6.86 16.6c0.57,21.16 -4.86,40.62 -16.02,57.78 -2.29,3.43 -4.01,7.44 -5.15,11.73 -3.15,22.6 -10.01,43.76 -20.02,63.79l-13.44 33.47c-6,18.6 -14.02,36.33 -23.45,53.78l-13.44 26.89c-15.44,34.04 -25.46,68.94 -30.03,104.7 -2.29,34.04 -16.31,64.65 -42.05,92.11 -15.45,6.57 -31.76,10.87 -48.63,12.58 -16.59,1.72 -33.47,-1.71 -50.06,-10.01 -2.86,-5.72 -5.44,-11.44 -7.73,-17.73 -1.72,-6.58 -4.29,-12.59 -8.01,-18.02 -3.43,-5.15 -9.44,-8.29 -17.73,-9.44 -5.15,4.29 -10.3,9.15 -15.16,14.02 -10.59,11.15 -21.45,21.74 -32.9,31.18l-8.3 6.58c-17.73,16.3 -36.9,30.32 -56.92,42.05 -18.31,10.58 -39.19,14.3 -62.07,11.73 -5.44,-0.57 -11.44,-1.43 -17.45,-2.57 -3.43,0 -6.58,-0.29 -9.44,-0.86z"/>
    <path class="fil3" d="M334.16 530.74l-91.85 0 0 459.25 0 91.85 91.85 0 275.55 0 0 -91.85 -275.55 0 0 -459.25zm367.4 183.7l0 91.85 275.55 0 0 45.93 -275.55 0 0 229.63 367.4 0 0 -367.4 -367.4 0zm275.55 275.55l-183.7 0 0 -45.93 183.7 0 0 45.93zm459.26 -459.25l-91.85 0 0 551.1 91.85 0 0 -275.55 275.55 0 0 -275.55 -275.55 0zm183.7 183.7l-183.7 0 0 -91.85 183.7 0 0 91.85zm183.7 0l0 91.85 275.55 0 0 45.93 -275.55 0 0 229.63 367.4 0 0 -367.4 -367.4 0zm275.55 275.55l-183.7 0 0 -45.93 183.7 0 0 45.93zm183.7 91.85l91.85 0 0 -551.1 -91.85 0 0 551.1zm183.7 -367.4l0 91.85 275.55 0 0 45.93 -275.55 0 0 229.63 367.4 0 0 -367.4 -367.4 0zm275.55 275.55l-183.7 0 0 -45.93 183.7 0 0 45.93zm459.26 91.85l91.85 0 0 -367.4 -275.55 0 0 -183.7 -91.85 0 0 551.1 275.55 0zm-183.7 -275.55l183.7 0 0 183.7 -183.7 0 0 -183.7zm459.26 0l275.55 0 0 -91.85 -275.55 0 -91.85 0 0 91.85 0 275.55 91.85 0 0 -275.55zm367.4 -91.85l0 91.85 275.55 0 0 45.93 -275.55 0 0 229.63 367.4 0 0 -367.4 -367.4 0zm275.55 275.55l-183.7 0 0 -45.93 183.7 0 0 45.93z"/>
    <path class="fil4" d="M334.16 502.84l-91.85 0 0 459.25 0 91.85 91.85 0 275.55 0 0 -91.85 -275.55 0 0 -459.25zm367.4 183.7l0 91.85 275.55 0 0 45.93 -275.55 0 0 229.63 367.4 0 0 -367.4 -367.4 0zm275.55 275.55l-183.7 0 0 -45.92 183.7 0 0 45.92zm459.24 -459.25l-91.85 0 0 551.1 91.85 0 0 -275.55 275.55 0 0 -275.55 -275.55 0zm183.7 183.7l-183.7 0 0 -91.85 183.7 0 0 91.85zm183.7 0l0 91.85 275.55 0 0 45.93 -275.55 0 0 229.63 367.4 0 0 -367.4 -367.4 0zm275.55 275.55l-183.7 0 0 -45.92 183.7 0 0 45.92zm183.7 91.85l91.85 0 0 -551.1 -91.85 0 0 551.1zm183.7 -367.4l0 91.85 275.55 0 0 45.93 -275.55 0 0 229.63 367.4 0 0 -367.4 -367.4 0zm275.55 275.55l-183.7 0 0 -45.92 183.7 0 0 45.92zm459.25 91.85l91.85 0 0 -367.4 -275.55 0 0 -183.7 -91.85 0 0 551.1 275.55 0zm-183.7 -275.55l183.7 0 0 183.7 -183.7 0 0 -183.7zm459.25 0l275.55 0 0 -91.85 -275.55 0 -91.85 0 0 91.85 0 275.55 91.85 0 0 -275.55zm367.4 -91.85l0 91.85 275.55 0 0 45.93 -275.55 0 0 229.63 367.4 0 0 -367.4 -367.4 0zm275.55 275.55l-183.7 0 0 -45.92 183.7 0 0 45.92z"/>
   </g>
  </g>
 </g>
</svg>
