<?xml version="1.0" encoding="UTF-8"?>
<!DOCTYPE svg PUBLIC "-//W3C//DTD SVG 1.1//EN" "http://www.w3.org/Graphics/SVG/1.1/DTD/svg11.dtd">
<!-- Creator: CorelDRAW 2021 (64-Bit) -->
<svg xmlns="http://www.w3.org/2000/svg" xml:space="preserve" width="0.4765in" height="0.4765in" version="1.1" style="shape-rendering:geometricPrecision; text-rendering:geometricPrecision; image-rendering:optimizeQuality; fill-rule:evenodd; clip-rule:evenodd"
viewBox="0 0 29.91 29.91"
 xmlns:xlink="http://www.w3.org/1999/xlink"
 xmlns:xodm="http://www.corel.com/coreldraw/odm/2003">
 <defs>
  <style type="text/css">
   <![CDATA[
    .fil1 {fill:#1E2220}
    .fil0 {fill:#F5F7FA}
   ]]>
  </style>
 </defs>
 <g id="Layer_x0020_1">
  <metadata id="CorelCorpID_0Corel-Layer"/>
  <g id="_2074766213680">
   <rect class="fil0" x="-0" y="-0" width="29.91" height="29.91" rx="3.3" ry="4.18"/>
   <g>
    <path class="fil1" d="M14.68 12.21c-1.73,-0.15 -3.03,-0.58 -4.37,-1.31 -1.5,-0.82 -1.58,-1.28 -2.36,-1.89 -0.23,-0.18 -0.13,-0.15 -0.4,-0.24 -1.01,-0.34 -1.21,2.09 0.44,4.23l-1.09 0.2c-0.03,0.01 -0.11,0.02 -0.16,0.05 0.48,1.66 0.96,2.47 2.37,2.96l-0.91 0.77c0.92,1.54 1.38,1.34 2.83,2.24 -0.85,0.91 -2.06,1.13 -3.22,1.29 -0.06,0.01 -0.62,0.09 -0.62,0.1l-0.78 0.34c4.84,1.59 8.06,2.09 11.88,-1.09 3.17,-2.64 3.14,-5.57 3.69,-8.02 0.25,-1.14 1.04,-1.02 1.61,-2.27l-1.4 0.39c0.24,-1.01 0.72,-0.8 0.87,-1.81 -3.57,1.57 -2.18,-0.81 -5.38,-0.33 -2.16,0.32 -3.01,2.01 -3.03,4.41z"/>
   </g>
  </g>
 </g>
</svg>
