<?xml version="1.0" encoding="UTF-8"?>
<!DOCTYPE svg PUBLIC "-//W3C//DTD SVG 1.1//EN" "http://www.w3.org/Graphics/SVG/1.1/DTD/svg11.dtd">
<!-- Creator: CorelDRAW 2021 (64-Bit) -->
<svg xmlns="http://www.w3.org/2000/svg" xml:space="preserve" width="1.013in" height="0.498567in" version="1.1" style="shape-rendering:geometricPrecision; text-rendering:geometricPrecision; image-rendering:optimizeQuality; fill-rule:evenodd; clip-rule:evenodd"
viewBox="0 0 947.61 466.38"
 xmlns:xlink="http://www.w3.org/1999/xlink"
 xmlns:xodm="http://www.corel.com/coreldraw/odm/2003">
 <defs>
  <style type="text/css">
   <![CDATA[
    .fil0 {fill:#1E2220}
    .fil1 {fill:#E9E9E9}
   ]]>
  </style>
 </defs>
 <g id="Layer_x0020_1">
  <metadata id="CorelCorpID_0Corel-Layer"/>
  <g id="_2258553285840">
   <path class="fil0" d="M808.48 390.74c-5.24,8.78 -23.15,5.62 -34.52,5.62 -52.37,0 -47.91,5.6 -47.91,-35.62 0,-52.79 -5.51,-48.2 36.86,-48.2 9.02,0 35.37,-1.68 41.71,1.68 9.11,4.84 5.27,25.59 5.27,35.47 -0,7.45 1.2,36.66 -1.41,41.05zm-534.03 -77.4l363.01 -0.78c7.99,11.75 5.66,11.92 5.62,27.66 -0.07,32.28 5.41,55.19 -12.84,56.19 -10.75,0.59 -23.66,-0.05 -34.66,-0.05l-277.83 0c-56.48,0 -48.8,8.64 -48.87,-54.56 -0.01,-16.04 -2.55,-17.11 5.56,-28.46zm-156.16 79.79c-3.41,-12.82 -3.51,-64.75 0.18,-77.23 10.7,-5.53 64.83,-5.25 78.51,-1.41 5.1,9.35 5.43,73.83 0.34,78.94 -5.03,5.05 -69.78,4.63 -79.03,-0.3zm524.61 -125.52c-1.46,-8.64 -0.27,-31.03 -0.23,-41.05 0.15,-39.76 -4.15,-33.77 50.78,-33.81 12.45,-0.01 31.16,-3.83 32.91,10.24 1.27,10.15 0.08,29.78 0.08,40.94 0,13.59 3.65,30.16 -9.76,32.52 -8.17,1.44 -30.92,0.24 -40.6,0.25 -12.95,0 -31.05,3.53 -33.19,-9.09zm-149.1 -73.08c11.11,-2.69 70.25,-5.13 76.96,1.61 6.8,6.82 4.22,65.58 1.69,77.03 -9.31,5.47 -24.83,3.52 -38.43,3.52 -48.93,0 -43.7,5.4 -43.7,-42.24 0,-14.14 -1.9,-30.48 3.48,-39.93zm-73.49 76.24c-4.89,8.69 -22.98,5.94 -34.67,5.93 -8.05,-0.01 -36.12,1.12 -41.38,-0.84 -9.62,-3.58 -6.47,-23.38 -6.47,-35.08 -0.01,-53.73 -5.35,-48.02 36.8,-48.02 8.16,0 36.01,-1.19 41.74,1.52 8.69,4.12 5.28,24.4 5.28,35.45 0,7.47 1.23,36.55 -1.3,41.04zm-232.79 -75.12c8.35,-3.53 71.64,-6.71 78.62,0.47 5.26,5.41 5.38,72.68 -0.43,77.9 -4.25,3.81 -70.62,5.39 -76.8,-0.67 -6.8,-6.67 -4.54,-67.64 -1.39,-77.69zm85.13 -121.14c11.04,-2.48 27.71,-1.44 40.37,-1.45 10.7,-0.01 32.71,-2.99 37.8,5.23 3.99,6.45 2.03,30.3 2.03,39.36 0,45.18 5.4,39.24 -44.56,39.24 -43.2,0 -39.43,6.84 -39.4,-43.98 0.01,-14.79 -2.13,-28.19 3.76,-38.41zm456.21 80.24c-3.5,-8.25 -6.58,-71.42 0.6,-78.45 6.05,-5.91 73.27,-4.82 77.83,0.18 4.25,4.66 4.87,71.43 -0.59,77.05 -6.42,6.6 -68.28,4.52 -77.84,1.22zm-154.93 -7.1c-1.41,-8.96 -0.18,-30.75 -0.18,-41.04 -0,-39.26 -4.8,-33.54 50.26,-33.54 39.61,-0 33.58,-3.55 33.59,50.9 0.01,39.16 4.24,32.92 -50.96,32.93 -12.66,0 -30.71,3.45 -32.71,-9.25zm-70.04 3.16c-4.71,8.85 -22.97,6.23 -34.59,6.1 -52.96,-0.59 -48.09,7.12 -48.09,-36.1 0,-53.48 -5.49,-47.75 37.04,-47.75 8.3,0 35.48,-1.46 41.41,1.58 8.48,4.36 5.37,24.13 5.37,35.12 0,7.02 1.01,37.02 -1.14,41.04zm-318.74 6.09l-53.67 0c-11.06,0 -15.13,-4.36 -15.13,-15.56l-0 -52.09c0,-11.6 3.47,-16.18 15.13,-16.18l53.67 0c12.52,0 15.14,4.09 15.14,16.18l0 50.52c0.01,12.26 -2.12,17.14 -15.14,17.14zm-158.91 -154.79c-10.38,2.67 -19.83,10.84 -23.32,20.11 -4.76,12.61 -2.26,112.54 -2.26,130.17l-0.15 265.2c-0.08,31.51 8.05,47.76 40.98,47.76 58.94,0.02 117.88,-0.04 176.81,-0.03l528.83 -0.11c28.34,0 159.03,3.48 175.82,-1.48 27.01,-7.98 24.61,-32.3 24.61,-61.93l0 -353.61c0.06,-27.16 -5.15,-47.81 -40.96,-47.47 -175.19,1.66 -352.97,-1.48 -528.85,-0.11 -24.77,0.2 -337.01,-2.24 -351.5,1.49z"/>
   <path class="fil1" d="M255.3 313.34c-8.97,11.35 -6.17,12.42 -6.15,28.46 0.08,63.2 -8.41,54.56 54.02,54.56l307.1 0c12.16,0 26.42,0.63 38.31,0.05 20.17,-1 14.11,-23.91 14.19,-56.19 0.04,-15.74 2.62,-15.91 -6.22,-27.66l-401.24 0.78z"/>
   <path class="fil1" d="M493.79 194.52c-5.38,9.45 -3.48,25.79 -3.48,39.93 0,47.63 -5.23,42.24 43.7,42.24 13.6,0 29.12,1.95 38.43,-3.52 2.53,-11.46 5.11,-70.21 -1.69,-77.03 -6.72,-6.74 -65.86,-4.3 -76.96,-1.61z"/>
   <path class="fil1" d="M187.51 195.64c-3.15,10.05 -5.41,71.02 1.39,77.69 6.18,6.07 72.55,4.48 76.8,0.67 5.81,-5.21 5.68,-72.49 0.43,-77.9 -6.98,-7.19 -70.27,-4 -78.62,-0.47z"/>
   <path class="fil1" d="M728.85 154.74c9.56,3.3 71.42,5.37 77.84,-1.22 5.47,-5.62 4.85,-72.39 0.59,-77.05 -4.56,-5 -71.78,-6.1 -77.83,-0.18 -7.18,7.03 -4.11,70.2 -0.6,78.45z"/>
   <path class="fil1" d="M642.9 267.61c2.14,12.61 20.24,9.09 33.19,9.09 9.68,-0 32.43,1.19 40.6,-0.25 13.41,-2.36 9.76,-18.93 9.76,-32.52 -0,-11.16 1.18,-30.79 -0.08,-40.94 -1.75,-14.07 -20.46,-10.25 -32.91,-10.24 -54.94,0.04 -50.64,-5.94 -50.78,33.81 -0.04,10.02 -1.23,32.41 0.23,41.05z"/>
   <path class="fil1" d="M420.3 270.76c2.53,-4.49 1.3,-33.57 1.3,-41.04 -0,-11.05 3.41,-31.33 -5.28,-35.45 -5.72,-2.71 -33.58,-1.52 -41.74,-1.52 -42.16,0 -36.82,-5.71 -36.8,48.02 0,11.7 -3.15,31.5 6.47,35.08 5.26,1.96 33.33,0.84 41.38,0.84 11.69,0.01 29.78,2.76 34.67,-5.93z"/>
   <path class="fil1" d="M118.29 393.13c9.24,4.94 74,5.35 79.03,0.3 5.09,-5.11 4.76,-69.59 -0.34,-78.94 -13.69,-3.84 -67.82,-4.12 -78.51,1.41 -3.69,12.47 -3.59,64.41 -0.18,77.23z"/>
   <path class="fil1" d="M272.64 74.5c-5.89,10.22 -3.75,23.62 -3.76,38.41 -0.03,50.81 -3.8,43.98 39.4,43.98 49.96,0 44.56,5.94 44.56,-39.24 0,-9.06 1.97,-32.91 -2.03,-39.36 -5.08,-8.22 -27.1,-5.24 -37.8,-5.23 -12.66,0.01 -29.33,-1.03 -40.37,1.45z"/>
   <path class="fil1" d="M573.92 147.63c2,12.7 20.05,9.25 32.71,9.25 55.2,-0.01 50.96,6.23 50.96,-32.93 -0.01,-54.45 6.01,-50.91 -33.59,-50.9 -55.06,0.01 -50.26,-5.71 -50.26,33.54 0,10.29 -1.22,32.08 0.18,41.04z"/>
   <path class="fil1" d="M808.48 390.74c2.47,-4.15 5.14,-71.74 -3.85,-76.52 -6.34,-3.36 -32.69,-1.68 -41.71,-1.68 -42.36,0 -36.85,-4.59 -36.86,48.2 0,41.21 -4.46,35.62 47.91,35.62 11.37,0 29.28,3.16 34.52,-5.62z"/>
   <path class="fil1" d="M503.89 150.79c2.15,-4.03 1.14,-34.02 1.14,-41.04 0,-10.99 3.11,-30.76 -5.37,-35.12 -5.93,-3.04 -33.11,-1.58 -41.41,-1.58 -42.53,0 -37.04,-5.73 -37.04,47.75 -0,43.22 -4.88,35.51 48.09,36.1 11.63,0.13 29.88,2.74 34.59,-6.1z"/>
   <path class="fil1" d="M185.15 156.88c13.02,0 15.15,-4.88 15.14,-17.14l0 -50.52c0,-12.08 -2.62,-16.18 -15.14,-16.18l-53.67 0c-11.66,0 -15.13,4.57 -15.13,16.18l0 52.09c0,11.21 4.07,15.56 15.13,15.56l53.67 0z"/>
  </g>
 </g>
</svg>
