<?xml version="1.0" encoding="UTF-8"?>
<!DOCTYPE svg PUBLIC "-//W3C//DTD SVG 1.1//EN" "http://www.w3.org/Graphics/SVG/1.1/DTD/svg11.dtd">
<!-- Creator: CorelDRAW 2021 (64-Bit) -->
<svg xmlns="http://www.w3.org/2000/svg" xml:space="preserve" width="0.4765in" height="0.4765in" version="1.1" style="shape-rendering:geometricPrecision; text-rendering:geometricPrecision; image-rendering:optimizeQuality; fill-rule:evenodd; clip-rule:evenodd"
viewBox="0 0 34.48 34.48"
 xmlns:xlink="http://www.w3.org/1999/xlink"
 xmlns:xodm="http://www.corel.com/coreldraw/odm/2003">
 <defs>
  <style type="text/css">
   <![CDATA[
    .fil0 {fill:#1E2220}
    .fil1 {fill:white}
   ]]>
  </style>
 </defs>
 <g id="Layer_x0020_1">
  <metadata id="CorelCorpID_0Corel-Layer"/>
  <g id="_2258472416352">
   <rect class="fil0" x="-0" y="-0" width="34.48" height="34.48" rx="3.8" ry="4.82"/>
   <g>
    <path class="fil1" d="M16.92 14.08c-1.99,-0.18 -3.5,-0.67 -5.03,-1.51 -1.73,-0.95 -1.82,-1.48 -2.72,-2.18 -0.27,-0.21 -0.15,-0.18 -0.46,-0.28 -1.16,-0.39 -1.4,2.4 0.5,4.87l-1.25 0.23c-0.04,0.01 -0.13,0.02 -0.18,0.06 0.55,1.92 1.1,2.85 2.74,3.41l-1.05 0.88c1.06,1.78 1.6,1.54 3.27,2.58 -0.98,1.05 -2.37,1.3 -3.71,1.49 -0.07,0.01 -0.71,0.11 -0.72,0.11l-0.9 0.39c5.58,1.83 9.3,2.41 13.7,-1.26 3.66,-3.04 3.62,-6.42 4.25,-9.25 0.29,-1.31 1.2,-1.17 1.86,-2.62l-1.61 0.45c0.27,-1.16 0.82,-0.93 1.01,-2.08 -4.12,1.81 -2.51,-0.93 -6.2,-0.39 -2.49,0.37 -3.47,2.32 -3.5,5.09z"/>
   </g>
  </g>
 </g>
</svg>
