<?xml version="1.0" encoding="UTF-8"?>
<!DOCTYPE svg PUBLIC "-//W3C//DTD SVG 1.1//EN" "http://www.w3.org/Graphics/SVG/1.1/DTD/svg11.dtd">
<!-- Creator: CorelDRAW 2021 (64-Bit) -->
<svg xmlns="http://www.w3.org/2000/svg" xml:space="preserve" width="2.95427in" height="1.46367in" version="1.1" style="shape-rendering:geometricPrecision; text-rendering:geometricPrecision; image-rendering:optimizeQuality; fill-rule:evenodd; clip-rule:evenodd"
viewBox="0 0 1944.02 963.15"
 xmlns:xlink="http://www.w3.org/1999/xlink"
 xmlns:xodm="http://www.corel.com/coreldraw/odm/2003">
 <defs>
  <style type="text/css">
   <![CDATA[
    .fil1 {fill:#1E2220}
    .fil3 {fill:#FEFEFE;fill-rule:nonzero}
    .fil2 {fill:#8B8D90;fill-rule:nonzero}
    .fil0 {fill:#1E2220;fill-rule:nonzero}
   ]]>
  </style>
 </defs>
 <g id="Layer_x0020_1">
  <metadata id="CorelCorpID_0Corel-Layer"/>
  <g id="_2258486089824">
   <g>
    <g>
     <path class="fil0" d="M152.69 543.3l-133.49 132.59 -11.49 -11.56 133.49 -132.59 11.49 11.56zm-11.49 -11.56c3.18,-3.16 8.34,-3.14 11.51,0.05 3.17,3.19 3.16,8.35 -0.03,11.51l-11.49 -11.56zm37.11 0.14l-11.54 11.46 0 0 -0.37 -0.35 -0.38 -0.33 -0.39 -0.31 -0.4 -0.28 -0.41 -0.26 -0.42 -0.24 -0.44 -0.22 -0.44 -0.19 -0.45 -0.17 -0.46 -0.15 -0.46 -0.12 -0.48 -0.11 -0.47 -0.08 -0.48 -0.06 -0.48 -0.04 -0.48 -0.01 -0.49 0.01 -0.48 0.03 -0.48 0.06 -0.47 0.08 -0.47 0.1 -0.47 0.12 -0.46 0.15 -0.46 0.17 -0.44 0.18 -0.43 0.21 -0.44 0.24 -0.42 0.26 -0.41 0.28 -0.39 0.3 -0.39 0.33 -0.38 0.35 -11.49 -11.56 0.98 -0.92 1.01 -0.86 1.05 -0.81 1.09 -0.75 1.11 -0.68 1.13 -0.62 1.16 -0.57 1.19 -0.51 1.19 -0.44 1.22 -0.39 1.23 -0.32 1.23 -0.26 1.25 -0.2 1.25 -0.15 1.26 -0.08 1.24 -0.03 1.26 0.03 1.25 0.09 1.25 0.16 1.24 0.21 1.23 0.27 1.23 0.33 1.21 0.39 1.2 0.45 1.18 0.52 1.15 0.57 1.14 0.63 1.1 0.69 1.08 0.76 1.04 0.81 1.01 0.87 0.97 0.93 0 0zm0 0c3.17,3.19 3.16,8.35 -0.03,11.52 -3.18,3.16 -8.34,3.14 -11.51,-0.05l11.54 -11.46zm108.75 132.57l-120.29 -121.1 11.54 -11.46 120.29 121.1 -11.54 11.46zm11.54 -11.46c3.17,3.19 3.16,8.35 -0.03,11.51 -3.18,3.16 -8.34,3.14 -11.51,-0.05l11.54 -11.46zm-0.11 37.11l-11.49 -11.56 0 0 0.36 -0.38 0.32 -0.37 0.3 -0.39 0.29 -0.42 0.27 -0.42 0.24 -0.42 0.21 -0.42 0.2 -0.46 0.17 -0.45 0.15 -0.46 0.13 -0.47 0.1 -0.46 0.08 -0.47 0.06 -0.49 0.04 -0.48 0.01 -0.49 -0.01 -0.48 -0.03 -0.47 -0.06 -0.48 -0.08 -0.48 -0.1 -0.47 -0.13 -0.47 -0.15 -0.47 -0.17 -0.45 -0.19 -0.44 -0.21 -0.43 -0.24 -0.43 -0.26 -0.41 -0.29 -0.41 -0.3 -0.39 -0.32 -0.37 -0.35 -0.38 11.54 -11.46 0.92 0.97 0.88 1.03 0.81 1.05 0.74 1.07 0.69 1.11 0.62 1.13 0.57 1.16 0.51 1.19 0.45 1.2 0.38 1.21 0.32 1.23 0.26 1.24 0.2 1.24 0.15 1.25 0.09 1.27 0.02 1.26 -0.03 1.25 -0.09 1.26 -0.15 1.24 -0.21 1.24 -0.28 1.25 -0.33 1.22 -0.39 1.21 -0.46 1.19 -0.51 1.16 -0.58 1.17 -0.64 1.13 -0.69 1.09 -0.74 1.06 -0.81 1.05 -0.88 1.02 -0.92 0.96 0 0zm0 0c-3.18,3.16 -8.34,3.14 -11.51,-0.05 -3.17,-3.19 -3.16,-8.35 0.03,-11.51l11.49 11.56zm-144.97 121.02l133.49 -132.58 11.49 11.56 -133.49 132.58 0 0 -11.49 -11.57zm11.49 11.56c-3.18,3.16 -8.34,3.14 -11.51,-0.05 -3.17,-3.19 -3.16,-8.35 0.03,-11.51l11.49 11.56zm-37.11 -0.13l11.54 -11.46 0 -0 0.37 0.35 0.39 0.33 0.39 0.3 0.4 0.28 0.41 0.26 0.42 0.24 0.43 0.21 0.45 0.19 0.45 0.17 0.46 0.15 0.46 0.13 0.47 0.1 0.49 0.09 0.48 0.06 0.48 0.04 0.49 0.01 0.48 -0.01 0.47 -0.03 0.49 -0.06 0.48 -0.08 0.47 -0.1 0.46 -0.12 0.46 -0.15 0.46 -0.17 0.43 -0.18 0.44 -0.22 0.43 -0.24 0.41 -0.25 0.41 -0.28 0.39 -0.3 0.39 -0.33 0.38 -0.35 11.49 11.57 -0.98 0.92 -1.01 0.86 -1.05 0.81 -1.08 0.74 -1.11 0.69 -1.13 0.62 -1.16 0.57 -1.19 0.51 -1.19 0.44 -1.21 0.39 -1.23 0.32 -1.24 0.26 -1.24 0.2 -1.24 0.14 -1.27 0.09 -1.26 0.02 -1.25 -0.03 -1.26 -0.09 -1.25 -0.16 -1.23 -0.21 -1.24 -0.27 -1.23 -0.33 -1.21 -0.39 -1.2 -0.46 -1.17 -0.51 -1.16 -0.58 -1.14 -0.63 -1.1 -0.69 -1.08 -0.76 -1.05 -0.82 -1 -0.87 -0.97 -0.92 0 -0zm0 0c-3.17,-3.19 -3.16,-8.35 0.02,-11.52 3.18,-3.17 8.34,-3.14 11.52,0.05l-11.54 11.47zm-108.75 -132.57l120.29 121.1 -11.54 11.46 -120.29 -121.1 0 0 11.54 -11.46zm-11.54 11.46c-3.17,-3.19 -3.16,-8.35 0.03,-11.51 3.18,-3.16 8.34,-3.14 11.51,0.05l-11.54 11.46zm0.11 -37.11l11.49 11.56 0 0 -0.36 0.38 -0.32 0.37 -0.31 0.4 -0.29 0.41 -0.26 0.42 -0.24 0.42 -0.21 0.42 -0.2 0.45 -0.17 0.45 -0.15 0.46 -0.13 0.47 -0.1 0.46 -0.08 0.48 -0.06 0.49 -0.04 0.48 -0.01 0.49 0.01 0.48 0.03 0.47 0.06 0.48 0.08 0.49 0.1 0.47 0.12 0.46 0.15 0.47 0.17 0.45 0.18 0.43 0.21 0.43 0.24 0.44 0.25 0.41 0.29 0.41 0.3 0.39 0.32 0.37 0.35 0.38 -11.54 11.46 -0.92 -0.97 -0.88 -1.03 -0.81 -1.05 -0.74 -1.07 -0.69 -1.11 -0.62 -1.13 -0.57 -1.16 -0.51 -1.19 -0.44 -1.2 -0.38 -1.2 -0.33 -1.23 -0.26 -1.24 -0.2 -1.23 -0.15 -1.25 -0.09 -1.27 -0.02 -1.26 0.03 -1.25 0.09 -1.26 0.15 -1.24 0.21 -1.24 0.28 -1.25 0.33 -1.22 0.39 -1.21 0.46 -1.2 0.51 -1.17 0.58 -1.17 0.63 -1.13 0.69 -1.1 0.75 -1.07 0.81 -1.04 0.88 -1.02 0.92 -0.97 0 0zm0 -0c3.18,-3.16 8.34,-3.14 11.51,0.05 3.17,3.19 3.16,8.35 -0.03,11.52l-11.49 -11.57z"/>
    </g>
    <rect class="fil1" transform="matrix(3.92151 -3.96549 3.96549 3.92151 147.68 578.567)" width="2.92" height="25.31" rx="0.46" ry="0.46"/>
    <path class="fil0" d="M81.46 652.01l-16.51 17.02 17.02 16.52 17.02 16.51 16.51 -17.02 -17.02 -16.51 33.03 -34.04 17.02 16.51 -8.26 8.51 -16.52 17.02 17.03 16.52c5.67,5.5 11.34,11.01 17.02,16.51 19.68,-20.3 19.8,-13.84 -0.51,-33.54l8.25 -8.51c19.69,-20.3 19.8,-13.84 -0.51,-33.54l-17.02 -16.51c-20.3,-19.69 -13.85,-19.79 -33.54,0.51l-33.03 34.04zm110.4 90.57l16.51 -17.02 -17.02 -16.51 -16.52 17.02 17.03 16.51z"/>
   </g>
   <rect class="fil1" transform="matrix(3.0686 -3.0686 3.0686 3.0686 242.962 806.912)" width="12.99" height="35.43" rx="0.73" ry="0.73"/>
   <rect class="fil1" transform="matrix(1.50186 -1.50186 1.58782 1.58782 215.903 759.501)" width="12.99" height="35.43"/>
  </g>
  <path class="fil0" d="M170.18 83.67l55.78 0 0 83.67 27.89 0 0 -167.34 -111.56 0 0 167.34 27.89 0 0 -83.67zm0 -55.78l55.78 0 0 27.89 -55.78 0 0 -27.89zm195.23 27.89l-83.67 0 0 111.56 111.56 0 0 -167.34 -27.89 0 0 55.78zm0 83.67l-55.78 0 0 -55.78 55.78 0 0 55.78zm55.78 27.89l27.89 0 0 -111.56 -27.89 0 0 111.56zm0 -139.45l27.89 0 0 -27.89 -27.89 0 0 27.89zm55.78 27.89l38.35 111.56 34.86 0 38.35 -111.56 -34.86 0 -20.92 76.69 -20.92 -76.69 -34.86 0zm139.45 111.56l27.89 0 0 -111.56 -27.89 0 0 111.56zm0 -139.45l27.89 0 0 -27.89 -27.89 0 0 27.89zm83.67 27.89l-27.89 0 0 27.89 0 83.67 27.89 0 0 -83.67 55.78 0 0 83.67 27.89 0 0 -83.67 0 -27.89 -27.89 0 -55.78 0zm111.56 0l0 27.89 83.67 0 0 13.95 -83.67 0 0 69.72 111.56 0 0 -111.56 -111.56 0zm83.67 83.67l-55.78 0 0 -13.95 55.78 0 0 13.95z"/>
  <path class="fil2" d="M533.48 760.7c-2.48,1.04 -4.71,2.48 -6.41,4.45 -1.83,1.83 -3.4,3.92 -4.71,5.88 -0.65,0.78 -1.31,1.57 -1.83,2.35 -15.04,20.4 -28.5,41.97 -40.27,64.72 -4.84,9.41 -8.37,19.35 -10.72,29.81 -1.57,6.93 -1.83,13.6 -1.18,20.13 0.78,6.54 3.79,12.29 8.89,17.13 9.15,1.7 16.47,3.01 21.83,3.79 5.36,0.78 12.68,-0.13 22.23,-2.75 4.84,-1.18 9.68,-2.61 14.51,-4.18l1.57 -0.78c10.2,-3.27 18.96,-9.81 26.41,-19.74 7.32,-9.81 11.38,-19.87 11.9,-30.33 2.75,-11.25 0.13,-25.11 -7.84,-41.58 -8.11,-16.47 -18.17,-32.16 -30.07,-46.94 -0.26,-0.52 -0.65,-0.92 -1.18,-1.05 -0.52,0 -1.05,-0.26 -1.57,-0.52 -0.52,0 -1.04,-0.13 -1.57,-0.39zm-96.5 -129.44c0.26,-10.2 -0.78,-20.27 -3.01,-30.33 -0.52,-1.18 -0.78,-2.48 -0.66,-3.79 0.13,-1.31 0.52,-2.48 1.05,-3.79 4.05,-8.24 6.93,-16.87 8.76,-26.02 0.78,-2.88 1.57,-5.75 2.35,-8.89 1.44,-4.58 3.92,-8.5 7.19,-11.9 0,-0.26 0.13,-0.39 0.39,-0.66l9.94 -13.08c5.36,-8.24 11.64,-15.69 18.83,-22.62 1.57,-1.57 2.88,-3.53 4.18,-6.15 0.78,-1.05 1.7,-2.22 2.75,-3.79 7.06,-2.09 12.95,-5.75 17.52,-11.11 2.88,-3.01 5.88,-5.75 9.29,-8.11 7.32,-4.58 14.64,-9.28 21.83,-14.12 7.32,-4.84 14.9,-9.68 22.62,-14.51 17.26,-11.25 36.22,-16.22 56.61,-15.04 4.58,0.26 9.02,0.39 13.47,0.39l0.39 0c13.21,-0.52 26.54,1.96 39.75,7.32 1.31,1.31 2.61,2.75 3.92,4.18 5.88,5.36 11.11,11.9 15.69,19.61 6.67,12.42 7.72,25.63 3.4,39.36 -6.15,17.65 -12.95,35.04 -20.27,52.17 -0.78,1.96 -1.7,4.05 -2.75,6.15 -1.7,5.89 -5.23,10.98 -10.33,15.3 -1.7,-1.57 -2.75,-3.14 -2.88,-4.97 -0.13,-1.83 0.13,-3.53 0.65,-5.36l0 -0.78c1.7,-11.24 2.48,-22.62 2.22,-34.12l0 -6.93c0.26,-6.54 -0.52,-13.08 -2.22,-19.48 -0.78,-3.01 -1.57,-5.1 -2.35,-6.27 -0.78,-1.18 -1.7,-1.7 -2.61,-1.7 -1.05,0 -2.35,0.26 -3.92,0.66 -2.75,1.05 -6.8,1.31 -12.16,0.78 -13.6,-1.7 -25.37,0 -35.43,5.23 -10.2,5.23 -19.87,11.9 -29.42,20.14 -2.74,1.96 -5.62,4.18 -8.37,6.41 -3.53,2.61 -6.93,5.36 -9.94,8.11 -4.84,4.05 -9.81,7.97 -14.91,11.9 -1.31,0.78 -2.61,1.7 -3.92,2.61 -1.31,1.05 -2.09,2.22 -2.61,3.53 -2.62,5.62 -6.15,9.94 -10.72,12.94l-2.35 1.57c-9.68,7.45 -15.3,17.13 -16.87,29.16 -0.52,3.01 -1.57,5.89 -3.01,8.37 -2.61,6.41 -1.57,13.47 3.27,21.31 4.71,7.72 11.51,13.99 20.4,18.57 0.52,4.84 2.22,8.89 4.97,12.29 2.88,3.27 6.02,6.27 9.68,9.15 2.75,2.22 5.49,4.71 7.98,7.32 7.19,7.32 13.33,15.3 18.44,23.67 5.62,9.41 11.9,18.31 18.7,26.41l9.28 11.51c5.88,8.5 10.72,17 14.51,25.76 1.05,2.22 2.09,4.45 3.14,6.41 4.05,8.76 7.71,17.65 10.98,26.8 3.4,9.28 5.36,18.83 6.15,28.76 0.26,2.09 0.39,4.05 0.39,6.15 0.26,4.58 0.65,9.02 1.18,13.47 2.61,24.45 -3.92,46.02 -19.48,64.72 -1.83,2.22 -3.66,4.71 -5.36,7.19 -3.92,5.36 -8.24,10.33 -13.08,15.04 -16.34,16.08 -35.83,24.06 -58.58,24.06 -4.58,0 -9.15,0.13 -13.47,0.39 -8.89,1.04 -18.04,0.65 -27.59,-1.18 -15.82,-3.53 -29.29,-9.81 -40.53,-18.96 -11.24,-9.02 -19.61,-21.44 -24.97,-37.26 -2.48,-6.41 -2.88,-12.81 -1.05,-19.22 1.44,-5.88 2.35,-11.9 2.61,-18.04 0.26,-1.44 0.39,-3.01 0.39,-4.58 2.48,-18.31 8.76,-35.3 18.83,-50.86 7.58,-12.81 16.47,-24.45 26.54,-34.91 10.07,-10.46 20.92,-20.4 32.43,-29.81 2.22,-2.09 4.71,-4.31 7.19,-6.54 1.05,-1.05 2.22,-2.09 3.53,-3.14 -6.41,-11.24 -14.25,-21.05 -23.41,-29.42 -13.07,-14.38 -24.97,-29.55 -35.96,-45.63 -4.84,-6.93 -9.94,-13.73 -15.04,-20.66 -2.48,-3.4 -3.92,-7.06 -4.18,-11.11zm325.31 79.63c-7.19,4.84 -10.07,8.76 -8.63,11.77 1.31,2.88 3.53,4.05 6.27,3.53 2.88,-0.39 5.88,-1.31 9.41,-2.48 3.4,-1.05 8.63,-3.14 15.69,-5.88 7.06,-2.88 13.21,-7.19 18.57,-13.08l6.15 -6.8c4.32,-4.18 8.24,-8.63 11.64,-13.47 3.53,-4.84 6.02,-10.33 7.45,-16.47 -1.18,-0.26 -2.35,-0.39 -3.4,-0.39 -3.53,-0.26 -6.28,-0.39 -8.24,-0.52 -1.96,-0.13 -3.66,0.13 -5.23,0.78 -1.44,0.66 -3.53,1.57 -6.01,2.88 -6.67,3.27 -12.95,7.06 -18.7,11.24 -5.62,4.18 -10.33,9.94 -13.86,17 -2.35,4.97 -6.02,8.89 -11.11,11.9zm-10.72 32.95c-15.95,-1.31 -24.58,5.62 -26.15,20.66 -0.52,3.4 -1.44,6.54 -3.01,9.68 -2.09,4.32 -3.01,8.89 -2.75,13.73 3.4,3.53 7.45,5.23 12.29,4.97 17.65,6.41 35.3,5.36 52.82,-3.01 10.33,-4.58 20.4,-9.28 30.33,-14.25 6.67,-3.53 13.34,-6.93 20.27,-10.33 0.52,-0.26 1.05,-0.39 1.57,-0.39 21.44,-11.9 43.67,-25.1 66.68,-39.36 3.53,-5.1 8.89,-7.32 16.08,-6.54 7.06,0.78 13.86,4.45 20.27,11.11 -8.24,10.72 -20.53,22.62 -37.14,35.56 -3.92,3.4 -6.67,7.19 -8.5,11.51 -1.44,4.05 -3.53,6.93 -6.15,8.5 -8.63,4.84 -16.87,11.11 -24.84,19.09 -7.98,7.98 -25.89,18.44 -54,31.64 -28.11,13.08 -46.55,20.92 -55.57,23.54 -5.88,1.31 -11.77,1.83 -17.65,1.57 -4.84,0 -9.29,0.39 -13.34,1.04 -15.04,-3.79 -28.37,-6.8 -40.01,-8.89 -11.64,-2.22 -21.57,-10.33 -29.68,-24.32l-1.57 -9.28 -4.58 -22.23c-1.05,-6.54 -0.52,-13.2 1.44,-19.87 0.26,-0.52 0.39,-1.18 0.39,-1.96 2.88,-11.25 6.8,-21.97 11.9,-32.17l4.58 -11.51c5.88,-12.16 13.08,-23.4 21.44,-33.6 0.26,-0.78 0.66,-1.44 1.18,-1.96 0.52,-0.78 1.18,-1.44 1.96,-1.96 0.52,-0.26 1.04,-0.52 1.57,-0.91 0.52,-0.39 0.66,-0.78 0.66,-1.31 3.66,-9.28 9.15,-16.74 16.47,-22.62 3.66,-3.14 6.93,-6.41 10.07,-9.94 7.84,-10.07 17,-18.31 27.2,-25.1 10.2,-6.8 20.92,-12.81 32.16,-18.17 6.41,-3.14 13.2,-4.58 20.66,-4.32 3.53,0 7.19,-0.26 10.72,-0.78 5.62,-1.18 11.77,-1.31 18.44,-0.26 2.75,1.18 5.75,2.48 8.76,3.79 7.19,3.01 14.38,6.67 21.84,10.72 7.45,4.05 14.12,9.54 20.27,16.47 0.78,11.51 -0.39,22.36 -3.66,32.69 -3.14,10.33 -9.81,19.74 -20,28.24 -10.98,8.63 -22.23,16.47 -33.74,23.53 -11.51,7.06 -24.19,12.16 -37.92,15.43 -9.94,1.83 -19.87,2.35 -29.55,1.57l-2.22 0zm151.28 91.92l-2.22 -7.58c-1.57,-5.36 -3.27,-10.59 -5.1,-15.69 -2.22,-8.24 -3.14,-16.22 -2.61,-23.93 0.52,-7.85 1.7,-15.56 3.4,-23.27 0.78,-3.79 1.44,-7.58 1.96,-11.51 3.53,-17.52 9.54,-34 18.04,-49.43 8.11,-18.04 19.09,-34.26 32.95,-48.64 15.82,-13.47 32.95,-25.1 51.65,-34.78 8.89,-4.84 19.09,-7.19 30.46,-7.06 11.38,0.13 21.44,2.35 30.07,6.67 4.58,1.83 8.24,6.28 11.11,13.34 -7.45,-0.65 -15.17,-0.26 -23.14,1.57 -8.11,1.83 -14.77,5.23 -20.13,10.33l-9.94 13.86c-14.65,18.3 -27.98,37.52 -40.27,57.4 -12.29,19.87 -21.31,41.71 -27.19,65.51 -1.31,7.72 0.52,14.65 5.36,21.05 12.55,7.71 25.37,7.97 38.7,0.78 10.98,-5.36 21.7,-11.11 32.16,-17.26 11.25,-6.67 22.88,-12.68 34.91,-18.3 3.53,-1.83 6.54,-4.45 9.15,-7.72 1.57,-1.83 3.53,-2.88 5.88,-3.4 2.48,-0.52 5.1,-0.78 7.84,-0.78 2.35,0 4.58,-0.13 6.8,-0.39 2.09,-0.26 3.79,-1.05 5.1,-2.35 3.14,-2.75 5.49,-4.97 7.06,-6.41 1.7,-1.57 7.84,-5.36 18.31,-11.38 10.46,-6.01 21.83,-9.41 34,-10.2 4.18,2.88 6.41,6.27 6.8,10.46 0.39,4.05 0,8.24 -1.05,12.55 -3.01,12.29 -9.28,22.49 -18.7,30.73 -4.58,3.79 -8.24,6.8 -10.72,9.15 -2.62,2.35 -4.71,4.31 -6.54,6.15 -2.09,1.96 -4.45,4.31 -7.06,6.67 -2.75,2.48 -6.93,5.88 -12.42,10.59 -3.14,2.48 -6.41,4.84 -10.07,6.8 -5.88,3.14 -10.59,6.8 -14.12,11.11 -1.83,1.57 -3.4,2.48 -4.84,2.75 -1.31,0.26 -2.48,0.39 -3.27,0.39l-0.65 0c-25.89,17.13 -52.3,30.07 -79.37,39.1 -10.2,0.65 -20.27,0.26 -30.2,-1.57 -4.19,-0.26 -8.11,-0.65 -11.9,-1.18 -7.72,-1.31 -14.25,-4.18 -19.61,-8.76 -4.84,-4.18 -10.33,-6.93 -16.47,-8.5 -1.44,-1.7 -2.88,-3.66 -4.18,-5.75 -2.48,-4.58 -5.88,-8.24 -9.94,-11.11zm215.61 -40.93c-0.52,-4.31 -0.13,-8.89 1.18,-13.47 7.45,-23.67 14.51,-47.73 21.44,-71.91 6.93,-24.32 12.68,-48.9 17.26,-74.01l0 -0.39c0.26,-1.83 0.65,-3.53 1.18,-5.36 0.52,-1.7 1.57,-3.4 3.01,-4.97 5.62,-0.52 10.2,-1.44 13.86,-2.61 9.94,-1.31 15.69,-1.83 17.39,-1.44 1.7,0.39 2.48,2.48 2.48,6.41 0,2.75 -0.39,5.49 -1.18,7.97 -0.52,2.62 -0.78,5.23 -0.91,8.11 -0.13,2.74 0.65,5.75 2.48,8.76 10.46,-4.84 19.61,-9.15 27.59,-12.81 7.84,-3.66 18.3,-3.14 30.99,1.7 12.03,1.57 20.79,9.68 26.41,24.58 10.46,22.62 10.07,36.48 -1.44,41.32 -2.61,4.84 -4.58,8.37 -6.01,10.33 -1.31,2.09 -6.15,0.78 -14.12,-3.79 -8.11,-4.58 -14.12,-7.71 -18.17,-9.15 -2.09,2.48 -4.45,4.32 -7.32,5.36 -2.75,0.91 -5.89,1.7 -9.15,2.22 -0.78,0.26 -1.57,0.39 -2.35,0.39 -9.94,2.35 -18.44,7.58 -25.5,15.69 -6.93,8.24 -11.11,17.78 -12.42,28.77 -1.31,11.24 -2.61,22.49 -4.18,33.73 -1.83,10.2 -3.27,20.4 -4.18,30.6 -1.83,15.82 -6.93,30.46 -15.43,43.67 -6.54,3.14 -12.95,3.79 -19.09,2.09 -6.15,-1.57 -11.9,-4.58 -17.26,-9.02 -9.94,-8.37 -13.2,-19.35 -9.94,-32.95 2.74,-9.68 3.92,-19.61 3.4,-29.81zm260.59 -83.94c-7.19,4.84 -10.07,8.76 -8.63,11.77 1.31,2.88 3.53,4.05 6.27,3.53 2.88,-0.39 5.88,-1.31 9.41,-2.48 3.4,-1.05 8.63,-3.14 15.69,-5.88 7.06,-2.88 13.21,-7.19 18.57,-13.08l6.15 -6.8c4.32,-4.18 8.24,-8.63 11.64,-13.47 3.53,-4.84 6.02,-10.33 7.45,-16.47 -1.18,-0.26 -2.35,-0.39 -3.4,-0.39 -3.53,-0.26 -6.28,-0.39 -8.24,-0.52 -1.96,-0.13 -3.66,0.13 -5.23,0.78 -1.44,0.66 -3.53,1.57 -6.01,2.88 -6.67,3.27 -12.95,7.06 -18.7,11.24 -5.62,4.18 -10.33,9.94 -13.86,17 -2.35,4.97 -6.02,8.89 -11.11,11.9zm-10.72 32.95c-15.95,-1.31 -24.58,5.62 -26.15,20.66 -0.52,3.4 -1.44,6.54 -3.01,9.68 -2.09,4.32 -3.01,8.89 -2.75,13.73 3.4,3.53 7.45,5.23 12.29,4.97 17.65,6.41 35.3,5.36 52.82,-3.01 10.33,-4.58 20.4,-9.28 30.33,-14.25 6.67,-3.53 13.34,-6.93 20.27,-10.33 0.52,-0.26 1.05,-0.39 1.57,-0.39 21.44,-11.9 43.67,-25.1 66.68,-39.36 3.53,-5.1 8.89,-7.32 16.08,-6.54 7.06,0.78 13.86,4.45 20.27,11.11 -8.24,10.72 -20.53,22.62 -37.14,35.56 -3.92,3.4 -6.67,7.19 -8.5,11.51 -1.44,4.05 -3.53,6.93 -6.15,8.5 -8.63,4.84 -16.87,11.11 -24.84,19.09 -7.98,7.98 -25.89,18.44 -54,31.64 -28.11,13.08 -46.55,20.92 -55.57,23.54 -5.88,1.31 -11.77,1.83 -17.65,1.57 -4.84,0 -9.29,0.39 -13.34,1.04 -15.04,-3.79 -28.37,-6.8 -40.01,-8.89 -11.64,-2.22 -21.57,-10.33 -29.68,-24.32l-1.57 -9.28 -4.58 -22.23c-1.05,-6.54 -0.52,-13.2 1.44,-19.87 0.26,-0.52 0.39,-1.18 0.39,-1.96 2.88,-11.25 6.8,-21.97 11.9,-32.17l4.58 -11.51c5.88,-12.16 13.08,-23.4 21.44,-33.6 0.26,-0.78 0.66,-1.44 1.18,-1.96 0.52,-0.78 1.18,-1.44 1.96,-1.96 0.52,-0.26 1.04,-0.52 1.57,-0.91 0.52,-0.39 0.66,-0.78 0.66,-1.31 3.66,-9.28 9.15,-16.74 16.47,-22.62 3.66,-3.14 6.93,-6.41 10.07,-9.94 7.84,-10.07 17,-18.31 27.2,-25.1 10.2,-6.8 20.92,-12.81 32.16,-18.17 6.41,-3.14 13.2,-4.58 20.66,-4.32 3.53,0 7.19,-0.26 10.72,-0.78 5.62,-1.18 11.77,-1.31 18.44,-0.26 2.75,1.18 5.75,2.48 8.76,3.79 7.19,3.01 14.38,6.67 21.84,10.72 7.45,4.05 14.12,9.54 20.27,16.47 0.78,11.51 -0.39,22.36 -3.66,32.69 -3.14,10.33 -9.81,19.74 -20,28.24 -10.98,8.63 -22.23,16.47 -33.74,23.53 -11.51,7.06 -24.19,12.16 -37.92,15.43 -9.94,1.83 -19.87,2.35 -29.55,1.57l-2.22 0zm297.59 -29.42c5.36,1.96 8.5,3.79 9.15,5.49 0.78,1.7 0.52,4.58 -0.66,8.63 -0.52,1.57 -0.91,3.01 -1.18,4.58 -0.78,3.14 -1.05,6.15 -0.78,9.15 0.78,7.45 -1.83,13.73 -7.71,18.83 -21.97,37.79 -36.35,60.15 -43.28,67.08 -6.27,6.67 -12.94,13.08 -19.87,19.48 -8.63,7.98 -17.91,14.9 -27.59,21.05 -9.41,6.41 -17.65,12.95 -24.45,19.61l-1.57 1.44c-24.06,4.71 -43.41,-1.44 -58.18,-18.31 -2.35,-9.67 -2.74,-19.22 -1.44,-28.37 1.44,-9.15 3.4,-18.3 6.02,-27.19 3.01,-10.2 6.41,-25.63 9.94,-46.29 8.63,-12.81 13.99,-27.46 16.08,-44.07 1.83,-9.02 8.11,-29.94 18.96,-62.89 10.85,-32.95 17.39,-56.75 19.74,-71.65 5.62,-6.15 9.68,-13.2 12.29,-21.44 1.96,-5.88 4.71,-11.64 7.98,-17.26 -7.84,-3.01 -16.34,-4.97 -25.5,-5.88 -9.02,-0.91 -18.44,-1.44 -28.11,-1.7 -9.94,-0.26 -19.74,-0.91 -29.55,-1.96 -9.67,-1.05 -18.44,-3.27 -26.41,-6.93 1.04,-2.48 3.27,-5.1 6.54,-7.58 3.27,-2.62 6.67,-4.71 10.2,-6.54 3.4,-1.83 6.01,-2.74 7.84,-2.74 9.94,-0.92 19.74,-2.48 29.42,-4.58 9.54,-1.96 19.09,-3.4 28.76,-4.18 3.01,-0.52 6.15,-0.91 9.15,-1.18 6.93,-1.18 13.99,-1.57 21.05,-1.05 8.5,0.91 16.74,-1.57 24.97,-7.72 5.62,-12.29 11.77,-24.32 18.44,-35.96 4.32,-7.19 8.37,-14.51 12.16,-21.83 5.36,0.91 8.89,2.48 10.59,4.31 1.7,1.96 2.09,5.23 1.31,9.81 0,2.48 0.26,4.45 0.52,5.75 0.39,1.31 0.92,2.22 1.44,3.01 0.52,0.52 0.91,1.44 1.31,2.75 0.39,1.31 0.39,3.27 0.13,6.15 -0.26,1.05 -0.78,3.14 -1.83,6.41 -1.31,3.92 -2.48,7.84 -3.53,11.77 -0.91,3.92 -1.04,6.54 -0.26,7.84 1.44,1.57 2.61,3.27 3.4,5.36 0.52,1.57 1.18,2.75 1.96,3.79 0.65,1.05 1.7,1.44 3.01,1.18 6.93,-0.26 13.99,-0.13 21.44,0.39 9.15,1.05 18.04,1.05 26.41,0 4.32,-0.52 8.37,-0.65 12.03,-0.52 3.79,0.13 7.58,0.39 11.37,0.91 2.22,0.26 4.84,0.52 7.59,0.78 6.67,0.78 13.2,0.78 19.61,0 15.56,-2.61 31.12,-3.27 46.68,-1.96l6.93 0c4.84,0.52 9.81,0.52 14.9,0 12.55,-1.57 24.97,-1.31 37.26,0.78 12.16,2.09 24.32,4.58 36.35,7.72 0.78,0.13 1.57,0.39 2.62,0.65 3.92,0.78 8.11,1.44 12.68,1.96 6.93,0.26 13.34,1.44 19.35,3.4 6.01,2.09 10.2,6.54 12.42,13.47 -2.22,9.67 -10.72,13.47 -25.23,11.51 -24.84,-2.35 -65.64,-3.14 -122.38,-2.35 -56.88,0.78 -107.35,3.27 -151.54,7.32 -4.05,2.35 -7.06,5.49 -8.76,9.54 -1.83,4.05 -3.27,8.37 -4.32,12.68 -0.65,4.05 -1.83,7.45 -3.4,10.33 -4.58,9.41 -7.45,18.83 -8.37,28.37 -19.22,68.12 -30.99,108.39 -35.3,120.68 -1.83,4.31 -3.27,10.07 -4.58,17.13 -1.31,7.19 -2.48,13.99 -3.4,20.4 -0.52,1.96 -2.09,8.89 -4.71,20.66 -8.63,31.38 9.94,18.31 55.57,-39.49 7.19,-6.93 12.68,-12.42 16.74,-16.47 3.92,-4.05 11.11,-12.16 21.58,-24.06zm-18.04 161.22c-18.57,-16.6 -24.71,-37.52 -18.31,-62.76 6.41,-27.85 16.08,-54.26 29.03,-79.37 7.72,-15.82 17.13,-30.07 28.37,-42.89 1.05,-0.78 1.96,-1.7 2.75,-2.61 8.89,-9.29 18.17,-18.04 27.98,-26.28 9.68,-8.37 20.53,-15.04 32.56,-20.13 17.13,-6.67 34,-5.1 50.86,4.58 -3.01,0.26 -6.15,0.66 -9.15,1.18l-14.51 1.57c-8.76,4.32 -15.82,9.81 -21.44,16.47 -5.62,6.54 -10.59,13.73 -14.65,21.44 -3.53,6.41 -7.19,12.81 -11.11,19.48 -16.34,27.59 -30.59,56.22 -42.89,85.77 -2.74,6.93 -5.1,14.77 -6.93,23.4 2.61,-1.04 4.58,-2.35 6.01,-4.05 1.44,-1.57 2.75,-3.4 4.05,-5.1 0.52,-0.78 1.05,-1.57 1.83,-2.35 9.02,-11.77 18.7,-22.62 29.16,-32.56 11.51,-11.77 21.97,-24.19 31.38,-37.53l4.97 -6.54c5.1,-6.67 10.2,-13.08 15.3,-19.48 10.33,-12.55 19.88,-25.5 28.77,-38.7 0.26,-0.26 0.52,-0.65 0.78,-1.18 1.04,-1.31 1.7,-2.62 1.96,-4.18 1.96,-7.72 5.36,-14.38 10.07,-20.27 4.71,-5.88 10.33,-11.38 16.74,-16.47 3.27,-0.78 6.67,-1.57 10.33,-2.35 1.31,0.26 2.22,0.66 3.01,1.18 0.78,0.52 1.57,1.18 2.35,1.83 1.05,1.05 2.09,1.96 3.4,2.75 1.31,0 2.62,-0.26 3.92,-0.78 2.22,-0.52 4.7,-0.78 7.45,-0.91 2.62,-0.13 5.49,0.91 8.63,3.27 0.39,1.7 1.05,3.66 1.83,5.75l3.14 7.59c0.26,9.67 -2.22,18.56 -7.32,26.41 -1.05,1.57 -1.83,3.4 -2.35,5.36 -1.44,10.33 -4.58,20 -9.15,29.16l-6.15 15.3c-2.74,8.5 -6.41,16.61 -10.72,24.58l-6.15 12.29c-7.06,15.56 -11.64,31.51 -13.73,47.86 -1.05,15.56 -7.45,29.55 -19.22,42.1 -7.06,3.01 -14.52,4.97 -22.23,5.75 -7.58,0.78 -15.3,-0.78 -22.88,-4.58 -1.31,-2.61 -2.48,-5.23 -3.53,-8.11 -0.78,-3.01 -1.96,-5.75 -3.66,-8.24 -1.57,-2.35 -4.32,-3.79 -8.11,-4.31 -2.35,1.96 -4.71,4.18 -6.93,6.41 -4.84,5.1 -9.81,9.94 -15.04,14.25l-3.79 3.01c-8.11,7.45 -16.87,13.86 -26.02,19.22 -8.37,4.84 -17.91,6.54 -28.37,5.36 -2.48,-0.26 -5.23,-0.65 -7.98,-1.18 -1.57,0 -3.01,-0.13 -4.31,-0.39z"/>
  <path class="fil3" d="M530.11 745.23c-2.48,1.04 -4.71,2.48 -6.41,4.45 -1.83,1.83 -3.4,3.92 -4.71,5.88 -0.65,0.78 -1.31,1.57 -1.83,2.35 -15.04,20.4 -28.5,41.97 -40.27,64.72 -4.84,9.41 -8.37,19.35 -10.72,29.81 -1.57,6.93 -1.83,13.6 -1.18,20.13 0.78,6.54 3.79,12.29 8.89,17.13 9.15,1.7 16.47,3.01 21.83,3.79 5.36,0.78 12.68,-0.13 22.23,-2.75 4.84,-1.18 9.68,-2.61 14.51,-4.18l1.57 -0.78c10.2,-3.27 18.96,-9.81 26.41,-19.74 7.32,-9.81 11.38,-19.87 11.9,-30.33 2.75,-11.25 0.13,-25.11 -7.84,-41.58 -8.11,-16.47 -18.17,-32.16 -30.07,-46.94 -0.26,-0.52 -0.65,-0.92 -1.18,-1.05 -0.52,0 -1.05,-0.26 -1.57,-0.52 -0.52,0 -1.04,-0.13 -1.57,-0.39zm-96.5 -129.44c0.26,-10.2 -0.78,-20.27 -3.01,-30.33 -0.52,-1.18 -0.78,-2.48 -0.66,-3.79 0.13,-1.31 0.52,-2.48 1.05,-3.79 4.05,-8.24 6.93,-16.87 8.76,-26.02 0.78,-2.88 1.57,-5.75 2.35,-8.89 1.44,-4.58 3.92,-8.5 7.19,-11.9 0,-0.26 0.13,-0.39 0.39,-0.66l9.94 -13.08c5.36,-8.24 11.64,-15.69 18.83,-22.62 1.57,-1.57 2.88,-3.53 4.18,-6.15 0.78,-1.05 1.7,-2.22 2.75,-3.79 7.06,-2.09 12.95,-5.75 17.52,-11.11 2.88,-3.01 5.88,-5.75 9.29,-8.11 7.32,-4.58 14.64,-9.28 21.83,-14.12 7.32,-4.84 14.9,-9.68 22.62,-14.51 17.26,-11.25 36.22,-16.22 56.61,-15.04 4.58,0.26 9.02,0.39 13.47,0.39l0.39 0c13.21,-0.52 26.54,1.96 39.75,7.32 1.31,1.31 2.61,2.75 3.92,4.18 5.88,5.36 11.11,11.9 15.69,19.61 6.67,12.42 7.72,25.63 3.4,39.36 -6.15,17.65 -12.95,35.04 -20.27,52.17 -0.78,1.96 -1.7,4.05 -2.75,6.15 -1.7,5.89 -5.23,10.98 -10.33,15.3 -1.7,-1.57 -2.75,-3.14 -2.88,-4.97 -0.13,-1.83 0.13,-3.53 0.65,-5.36l0 -0.78c1.7,-11.24 2.48,-22.62 2.22,-34.12l0 -6.93c0.26,-6.54 -0.52,-13.08 -2.22,-19.48 -0.78,-3.01 -1.57,-5.1 -2.35,-6.27 -0.78,-1.18 -1.7,-1.7 -2.61,-1.7 -1.05,0 -2.35,0.26 -3.92,0.66 -2.75,1.05 -6.8,1.31 -12.16,0.78 -13.6,-1.7 -25.37,0 -35.43,5.23 -10.2,5.23 -19.87,11.9 -29.42,20.14 -2.74,1.96 -5.62,4.18 -8.37,6.41 -3.53,2.61 -6.93,5.36 -9.94,8.11 -4.84,4.05 -9.81,7.97 -14.91,11.9 -1.31,0.78 -2.61,1.7 -3.92,2.61 -1.31,1.05 -2.09,2.22 -2.61,3.53 -2.62,5.62 -6.15,9.94 -10.72,12.94l-2.35 1.57c-9.68,7.45 -15.3,17.13 -16.87,29.16 -0.52,3.01 -1.57,5.89 -3.01,8.37 -2.61,6.41 -1.57,13.47 3.27,21.31 4.71,7.72 11.51,13.99 20.4,18.57 0.52,4.84 2.22,8.89 4.97,12.29 2.88,3.27 6.02,6.27 9.68,9.15 2.75,2.22 5.49,4.71 7.98,7.32 7.19,7.32 13.33,15.3 18.44,23.67 5.62,9.41 11.9,18.31 18.7,26.41l9.28 11.51c5.88,8.5 10.72,17 14.51,25.76 1.05,2.22 2.09,4.45 3.14,6.41 4.05,8.76 7.71,17.65 10.98,26.8 3.4,9.28 5.36,18.83 6.15,28.76 0.26,2.09 0.39,4.05 0.39,6.15 0.26,4.58 0.65,9.02 1.18,13.47 2.61,24.45 -3.92,46.02 -19.48,64.72 -1.83,2.22 -3.66,4.71 -5.36,7.19 -3.92,5.36 -8.24,10.33 -13.08,15.04 -16.34,16.08 -35.83,24.06 -58.58,24.06 -4.58,0 -9.15,0.13 -13.47,0.39 -8.89,1.04 -18.04,0.65 -27.59,-1.18 -15.82,-3.53 -29.29,-9.81 -40.53,-18.96 -11.24,-9.02 -19.61,-21.44 -24.97,-37.26 -2.48,-6.41 -2.88,-12.81 -1.05,-19.22 1.44,-5.88 2.35,-11.9 2.61,-18.04 0.26,-1.44 0.39,-3.01 0.39,-4.58 2.48,-18.31 8.76,-35.3 18.83,-50.86 7.58,-12.81 16.47,-24.45 26.54,-34.91 10.07,-10.46 20.92,-20.4 32.43,-29.81 2.22,-2.09 4.71,-4.31 7.19,-6.54 1.05,-1.05 2.22,-2.09 3.53,-3.14 -6.41,-11.24 -14.25,-21.05 -23.41,-29.42 -13.07,-14.38 -24.97,-29.55 -35.96,-45.63 -4.84,-6.93 -9.94,-13.73 -15.04,-20.66 -2.48,-3.4 -3.92,-7.06 -4.18,-11.11zm325.31 79.63c-7.19,4.84 -10.07,8.76 -8.63,11.77 1.31,2.88 3.53,4.05 6.27,3.53 2.88,-0.39 5.88,-1.31 9.41,-2.48 3.4,-1.05 8.63,-3.14 15.69,-5.88 7.06,-2.88 13.21,-7.19 18.57,-13.08l6.15 -6.8c4.32,-4.18 8.24,-8.63 11.64,-13.47 3.53,-4.84 6.02,-10.33 7.45,-16.47 -1.18,-0.26 -2.35,-0.39 -3.4,-0.39 -3.53,-0.26 -6.28,-0.39 -8.24,-0.52 -1.96,-0.13 -3.66,0.13 -5.23,0.78 -1.44,0.66 -3.53,1.57 -6.01,2.88 -6.67,3.27 -12.95,7.06 -18.7,11.24 -5.62,4.18 -10.33,9.94 -13.86,17 -2.35,4.97 -6.02,8.89 -11.11,11.9zm-10.72 32.95c-15.95,-1.31 -24.58,5.62 -26.15,20.66 -0.52,3.4 -1.44,6.54 -3.01,9.68 -2.09,4.32 -3.01,8.89 -2.75,13.73 3.4,3.53 7.45,5.23 12.29,4.97 17.65,6.41 35.3,5.36 52.82,-3.01 10.33,-4.58 20.4,-9.28 30.33,-14.25 6.67,-3.53 13.34,-6.93 20.27,-10.33 0.52,-0.26 1.05,-0.39 1.57,-0.39 21.44,-11.9 43.67,-25.1 66.68,-39.36 3.53,-5.1 8.89,-7.32 16.08,-6.54 7.06,0.78 13.86,4.45 20.27,11.11 -8.24,10.72 -20.53,22.62 -37.14,35.56 -3.92,3.4 -6.67,7.19 -8.5,11.51 -1.44,4.05 -3.53,6.93 -6.15,8.5 -8.63,4.84 -16.87,11.11 -24.84,19.09 -7.98,7.98 -25.89,18.44 -54,31.64 -28.11,13.08 -46.55,20.92 -55.57,23.54 -5.88,1.31 -11.77,1.83 -17.65,1.57 -4.84,0 -9.29,0.39 -13.34,1.04 -15.04,-3.79 -28.37,-6.8 -40.01,-8.89 -11.64,-2.22 -21.57,-10.33 -29.68,-24.32l-1.57 -9.28 -4.58 -22.23c-1.05,-6.54 -0.52,-13.2 1.44,-19.87 0.26,-0.52 0.39,-1.18 0.39,-1.96 2.88,-11.25 6.8,-21.97 11.9,-32.17l4.58 -11.51c5.88,-12.16 13.08,-23.4 21.44,-33.6 0.26,-0.78 0.66,-1.44 1.18,-1.96 0.52,-0.78 1.18,-1.44 1.96,-1.96 0.52,-0.26 1.04,-0.52 1.57,-0.91 0.52,-0.39 0.66,-0.78 0.66,-1.31 3.66,-9.28 9.15,-16.74 16.47,-22.62 3.66,-3.14 6.93,-6.41 10.07,-9.94 7.84,-10.07 17,-18.31 27.2,-25.1 10.2,-6.8 20.92,-12.81 32.16,-18.17 6.41,-3.14 13.2,-4.58 20.66,-4.32 3.53,0 7.19,-0.26 10.72,-0.78 5.62,-1.18 11.77,-1.31 18.44,-0.26 2.75,1.18 5.75,2.48 8.76,3.79 7.19,3.01 14.38,6.67 21.84,10.72 7.45,4.05 14.12,9.54 20.27,16.47 0.78,11.51 -0.39,22.36 -3.66,32.69 -3.14,10.33 -9.81,19.74 -20,28.24 -10.98,8.63 -22.23,16.47 -33.74,23.53 -11.51,7.06 -24.19,12.16 -37.92,15.43 -9.94,1.83 -19.87,2.35 -29.55,1.57l-2.22 0zm151.28 91.92l-2.22 -7.58c-1.57,-5.36 -3.27,-10.59 -5.1,-15.69 -2.22,-8.24 -3.14,-16.22 -2.61,-23.93 0.52,-7.85 1.7,-15.56 3.4,-23.27 0.78,-3.79 1.44,-7.58 1.96,-11.51 3.53,-17.52 9.54,-34 18.04,-49.43 8.11,-18.04 19.09,-34.26 32.95,-48.64 15.82,-13.47 32.95,-25.1 51.65,-34.78 8.89,-4.84 19.09,-7.19 30.46,-7.06 11.38,0.13 21.44,2.35 30.07,6.67 4.58,1.83 8.24,6.28 11.11,13.34 -7.45,-0.65 -15.17,-0.26 -23.14,1.57 -8.11,1.83 -14.77,5.23 -20.13,10.33l-9.94 13.86c-14.65,18.3 -27.98,37.52 -40.27,57.4 -12.29,19.87 -21.31,41.71 -27.19,65.51 -1.31,7.72 0.52,14.65 5.36,21.05 12.55,7.71 25.37,7.97 38.7,0.78 10.98,-5.36 21.7,-11.11 32.16,-17.26 11.25,-6.67 22.88,-12.68 34.91,-18.3 3.53,-1.83 6.54,-4.45 9.15,-7.72 1.57,-1.83 3.53,-2.88 5.88,-3.4 2.48,-0.52 5.1,-0.78 7.84,-0.78 2.35,0 4.58,-0.13 6.8,-0.39 2.09,-0.26 3.79,-1.05 5.1,-2.35 3.14,-2.75 5.49,-4.97 7.06,-6.41 1.7,-1.57 7.84,-5.36 18.31,-11.38 10.46,-6.01 21.83,-9.41 34,-10.2 4.18,2.88 6.41,6.27 6.8,10.46 0.39,4.05 0,8.24 -1.05,12.55 -3.01,12.29 -9.28,22.49 -18.7,30.73 -4.58,3.79 -8.24,6.8 -10.72,9.15 -2.62,2.35 -4.71,4.31 -6.54,6.15 -2.09,1.96 -4.45,4.31 -7.06,6.67 -2.75,2.48 -6.93,5.88 -12.42,10.59 -3.14,2.48 -6.41,4.84 -10.07,6.8 -5.88,3.14 -10.59,6.8 -14.12,11.11 -1.83,1.57 -3.4,2.48 -4.84,2.75 -1.31,0.26 -2.48,0.39 -3.27,0.39l-0.65 0c-25.89,17.13 -52.3,30.07 -79.37,39.1 -10.2,0.65 -20.27,0.26 -30.2,-1.57 -4.19,-0.26 -8.11,-0.65 -11.9,-1.18 -7.72,-1.31 -14.25,-4.18 -19.61,-8.76 -4.84,-4.18 -10.33,-6.93 -16.47,-8.5 -1.44,-1.7 -2.88,-3.66 -4.18,-5.75 -2.48,-4.58 -5.88,-8.24 -9.94,-11.11zm215.61 -40.93c-0.52,-4.31 -0.13,-8.89 1.18,-13.47 7.45,-23.67 14.51,-47.73 21.44,-71.91 6.93,-24.32 12.68,-48.9 17.26,-74.01l0 -0.39c0.26,-1.83 0.65,-3.53 1.18,-5.36 0.52,-1.7 1.57,-3.4 3.01,-4.97 5.62,-0.52 10.2,-1.44 13.86,-2.61 9.94,-1.31 15.69,-1.83 17.39,-1.44 1.7,0.39 2.48,2.48 2.48,6.41 0,2.75 -0.39,5.49 -1.18,7.97 -0.52,2.62 -0.78,5.23 -0.91,8.11 -0.13,2.74 0.65,5.75 2.48,8.76 10.46,-4.84 19.61,-9.15 27.59,-12.81 7.84,-3.66 18.3,-3.14 30.99,1.7 12.03,1.57 20.79,9.68 26.41,24.58 10.46,22.62 10.07,36.48 -1.44,41.32 -2.61,4.84 -4.58,8.37 -6.01,10.33 -1.31,2.09 -6.15,0.78 -14.12,-3.79 -8.11,-4.58 -14.12,-7.71 -18.17,-9.15 -2.09,2.48 -4.45,4.32 -7.32,5.36 -2.75,0.91 -5.89,1.7 -9.15,2.22 -0.78,0.26 -1.57,0.39 -2.35,0.39 -9.94,2.35 -18.44,7.58 -25.5,15.69 -6.93,8.24 -11.11,17.78 -12.42,28.77 -1.31,11.24 -2.61,22.49 -4.18,33.73 -1.83,10.2 -3.27,20.4 -4.18,30.6 -1.83,15.82 -6.93,30.46 -15.43,43.67 -6.54,3.14 -12.95,3.79 -19.09,2.09 -6.15,-1.57 -11.9,-4.58 -17.26,-9.02 -9.94,-8.37 -13.2,-19.35 -9.94,-32.95 2.74,-9.68 3.92,-19.61 3.4,-29.81zm260.59 -83.94c-7.19,4.84 -10.07,8.76 -8.63,11.77 1.31,2.88 3.53,4.05 6.27,3.53 2.88,-0.39 5.88,-1.31 9.41,-2.48 3.4,-1.05 8.63,-3.14 15.69,-5.88 7.06,-2.88 13.21,-7.19 18.57,-13.08l6.15 -6.8c4.32,-4.18 8.24,-8.63 11.64,-13.47 3.53,-4.84 6.02,-10.33 7.45,-16.47 -1.18,-0.26 -2.35,-0.39 -3.4,-0.39 -3.53,-0.26 -6.28,-0.39 -8.24,-0.52 -1.96,-0.13 -3.66,0.13 -5.23,0.78 -1.44,0.66 -3.53,1.57 -6.01,2.88 -6.67,3.27 -12.95,7.06 -18.7,11.24 -5.62,4.18 -10.33,9.94 -13.86,17 -2.35,4.97 -6.02,8.89 -11.11,11.9zm-10.72 32.95c-15.95,-1.31 -24.58,5.62 -26.15,20.66 -0.52,3.4 -1.44,6.54 -3.01,9.68 -2.09,4.32 -3.01,8.89 -2.75,13.73 3.4,3.53 7.45,5.23 12.29,4.97 17.65,6.41 35.3,5.36 52.82,-3.01 10.33,-4.58 20.4,-9.28 30.33,-14.25 6.67,-3.53 13.34,-6.93 20.27,-10.33 0.52,-0.26 1.05,-0.39 1.57,-0.39 21.44,-11.9 43.67,-25.1 66.68,-39.36 3.53,-5.1 8.89,-7.32 16.08,-6.54 7.06,0.78 13.86,4.45 20.27,11.11 -8.24,10.72 -20.53,22.62 -37.14,35.56 -3.92,3.4 -6.67,7.19 -8.5,11.51 -1.44,4.05 -3.53,6.93 -6.15,8.5 -8.63,4.84 -16.87,11.11 -24.84,19.09 -7.98,7.98 -25.89,18.44 -54,31.64 -28.11,13.08 -46.55,20.92 -55.57,23.54 -5.88,1.31 -11.77,1.83 -17.65,1.57 -4.84,0 -9.29,0.39 -13.34,1.04 -15.04,-3.79 -28.37,-6.8 -40.01,-8.89 -11.64,-2.22 -21.57,-10.33 -29.68,-24.32l-1.57 -9.28 -4.58 -22.23c-1.05,-6.54 -0.52,-13.2 1.44,-19.87 0.26,-0.52 0.39,-1.18 0.39,-1.96 2.88,-11.25 6.8,-21.97 11.9,-32.17l4.58 -11.51c5.88,-12.16 13.08,-23.4 21.44,-33.6 0.26,-0.78 0.66,-1.44 1.18,-1.96 0.52,-0.78 1.18,-1.44 1.96,-1.96 0.52,-0.26 1.04,-0.52 1.57,-0.91 0.52,-0.39 0.66,-0.78 0.66,-1.31 3.66,-9.28 9.15,-16.74 16.47,-22.62 3.66,-3.14 6.93,-6.41 10.07,-9.94 7.84,-10.07 17,-18.31 27.2,-25.1 10.2,-6.8 20.92,-12.81 32.16,-18.17 6.41,-3.14 13.2,-4.58 20.66,-4.32 3.53,0 7.19,-0.26 10.72,-0.78 5.62,-1.18 11.77,-1.31 18.44,-0.26 2.75,1.18 5.75,2.48 8.76,3.79 7.19,3.01 14.38,6.67 21.84,10.72 7.45,4.05 14.12,9.54 20.27,16.47 0.78,11.51 -0.39,22.36 -3.66,32.69 -3.14,10.33 -9.81,19.74 -20,28.24 -10.98,8.63 -22.23,16.47 -33.74,23.53 -11.51,7.06 -24.19,12.16 -37.92,15.43 -9.94,1.83 -19.87,2.35 -29.55,1.57l-2.22 0zm297.59 -29.42c5.36,1.96 8.5,3.79 9.15,5.49 0.78,1.7 0.52,4.58 -0.66,8.63 -0.52,1.57 -0.91,3.01 -1.18,4.58 -0.78,3.14 -1.05,6.15 -0.78,9.15 0.78,7.45 -1.83,13.73 -7.71,18.83 -21.97,37.79 -36.35,60.15 -43.28,67.08 -6.27,6.67 -12.94,13.08 -19.87,19.48 -8.63,7.98 -17.91,14.9 -27.59,21.05 -9.41,6.41 -17.65,12.95 -24.45,19.61l-1.57 1.44c-24.06,4.71 -43.41,-1.44 -58.18,-18.31 -2.35,-9.67 -2.74,-19.22 -1.44,-28.37 1.44,-9.15 3.4,-18.3 6.02,-27.19 3.01,-10.2 6.41,-25.63 9.94,-46.29 8.63,-12.81 13.99,-27.46 16.08,-44.07 1.83,-9.02 8.11,-29.94 18.96,-62.89 10.85,-32.95 17.39,-56.75 19.74,-71.65 5.62,-6.15 9.68,-13.2 12.29,-21.44 1.96,-5.88 4.71,-11.64 7.98,-17.26 -7.84,-3.01 -16.34,-4.97 -25.5,-5.88 -9.02,-0.91 -18.44,-1.44 -28.11,-1.7 -9.94,-0.26 -19.74,-0.91 -29.55,-1.96 -9.67,-1.05 -18.44,-3.27 -26.41,-6.93 1.04,-2.48 3.27,-5.1 6.54,-7.58 3.27,-2.62 6.67,-4.71 10.2,-6.54 3.4,-1.83 6.01,-2.74 7.84,-2.74 9.94,-0.92 19.74,-2.48 29.42,-4.58 9.54,-1.96 19.09,-3.4 28.76,-4.18 3.01,-0.52 6.15,-0.91 9.15,-1.18 6.93,-1.18 13.99,-1.57 21.05,-1.05 8.5,0.91 16.74,-1.57 24.97,-7.72 5.62,-12.29 11.77,-24.32 18.44,-35.96 4.32,-7.19 8.37,-14.51 12.16,-21.83 5.36,0.91 8.89,2.48 10.59,4.31 1.7,1.96 2.09,5.23 1.31,9.81 0,2.48 0.26,4.45 0.52,5.75 0.39,1.31 0.92,2.22 1.44,3.01 0.52,0.52 0.91,1.44 1.31,2.75 0.39,1.31 0.39,3.27 0.13,6.15 -0.26,1.05 -0.78,3.14 -1.83,6.41 -1.31,3.92 -2.48,7.84 -3.53,11.77 -0.91,3.92 -1.04,6.54 -0.26,7.84 1.44,1.57 2.61,3.27 3.4,5.36 0.52,1.57 1.18,2.75 1.96,3.79 0.65,1.05 1.7,1.44 3.01,1.18 6.93,-0.26 13.99,-0.13 21.44,0.39 9.15,1.05 18.04,1.05 26.41,0 4.32,-0.52 8.37,-0.65 12.03,-0.52 3.79,0.13 7.58,0.39 11.37,0.91 2.22,0.26 4.84,0.52 7.59,0.78 6.67,0.78 13.2,0.78 19.61,0 15.56,-2.61 31.12,-3.27 46.68,-1.96l6.93 0c4.84,0.52 9.81,0.52 14.9,0 12.55,-1.57 24.97,-1.31 37.26,0.78 12.16,2.09 24.32,4.58 36.35,7.72 0.78,0.13 1.57,0.39 2.62,0.65 3.92,0.78 8.11,1.44 12.68,1.96 6.93,0.26 13.34,1.44 19.35,3.4 6.01,2.09 10.2,6.54 12.42,13.47 -2.22,9.67 -10.72,13.47 -25.23,11.51 -24.84,-2.35 -65.64,-3.14 -122.38,-2.35 -56.88,0.78 -107.35,3.27 -151.54,7.32 -4.05,2.35 -7.06,5.49 -8.76,9.54 -1.83,4.05 -3.27,8.37 -4.32,12.68 -0.65,4.05 -1.83,7.45 -3.4,10.33 -4.58,9.41 -7.45,18.83 -8.37,28.37 -19.22,68.12 -30.99,108.39 -35.3,120.68 -1.83,4.31 -3.27,10.07 -4.58,17.13 -1.31,7.19 -2.48,13.99 -3.4,20.4 -0.52,1.96 -2.09,8.89 -4.71,20.66 -8.63,31.38 9.94,18.31 55.57,-39.49 7.19,-6.93 12.68,-12.42 16.74,-16.47 3.92,-4.05 11.11,-12.16 21.58,-24.06zm-18.04 161.22c-18.57,-16.6 -24.71,-37.52 -18.31,-62.76 6.41,-27.85 16.08,-54.26 29.03,-79.37 7.72,-15.82 17.13,-30.07 28.37,-42.89 1.05,-0.78 1.96,-1.7 2.75,-2.61 8.89,-9.29 18.17,-18.04 27.98,-26.28 9.68,-8.37 20.53,-15.04 32.56,-20.13 17.13,-6.67 34,-5.1 50.86,4.58 -3.01,0.26 -6.15,0.66 -9.15,1.18l-14.51 1.57c-8.76,4.32 -15.82,9.81 -21.44,16.47 -5.62,6.54 -10.59,13.73 -14.65,21.44 -3.53,6.41 -7.19,12.81 -11.11,19.48 -16.34,27.59 -30.59,56.22 -42.89,85.77 -2.74,6.93 -5.1,14.77 -6.93,23.4 2.61,-1.04 4.58,-2.35 6.01,-4.05 1.44,-1.57 2.75,-3.4 4.05,-5.1 0.52,-0.78 1.05,-1.57 1.83,-2.35 9.02,-11.77 18.7,-22.62 29.16,-32.56 11.51,-11.77 21.97,-24.19 31.38,-37.53l4.97 -6.54c5.1,-6.67 10.2,-13.08 15.3,-19.48 10.33,-12.55 19.88,-25.5 28.77,-38.7 0.26,-0.26 0.52,-0.65 0.78,-1.18 1.04,-1.31 1.7,-2.62 1.96,-4.18 1.96,-7.72 5.36,-14.38 10.07,-20.27 4.71,-5.88 10.33,-11.38 16.74,-16.47 3.27,-0.78 6.67,-1.57 10.33,-2.35 1.31,0.26 2.22,0.66 3.01,1.18 0.78,0.52 1.57,1.18 2.35,1.83 1.05,1.05 2.09,1.96 3.4,2.75 1.31,0 2.62,-0.26 3.92,-0.78 2.22,-0.52 4.7,-0.78 7.45,-0.91 2.62,-0.13 5.49,0.91 8.63,3.27 0.39,1.7 1.05,3.66 1.83,5.75l3.14 7.59c0.26,9.67 -2.22,18.56 -7.32,26.41 -1.05,1.57 -1.83,3.4 -2.35,5.36 -1.44,10.33 -4.58,20 -9.15,29.16l-6.15 15.3c-2.74,8.5 -6.41,16.61 -10.72,24.58l-6.15 12.29c-7.06,15.56 -11.64,31.51 -13.73,47.86 -1.05,15.56 -7.45,29.55 -19.22,42.1 -7.06,3.01 -14.52,4.97 -22.23,5.75 -7.58,0.78 -15.3,-0.78 -22.88,-4.58 -1.31,-2.61 -2.48,-5.23 -3.53,-8.11 -0.78,-3.01 -1.96,-5.75 -3.66,-8.24 -1.57,-2.35 -4.32,-3.79 -8.11,-4.31 -2.35,1.96 -4.71,4.18 -6.93,6.41 -4.84,5.1 -9.81,9.94 -15.04,14.25l-3.79 3.01c-8.11,7.45 -16.87,13.86 -26.02,19.22 -8.37,4.84 -17.91,6.54 -28.37,5.36 -2.48,-0.26 -5.23,-0.65 -7.98,-1.18 -1.57,0 -3.01,-0.13 -4.31,-0.39z"/>
  <path class="fil2" d="M123.85 213.7l-41.98 0 0 209.92 0 41.98 41.98 0 125.95 0 0 -41.98 -125.95 0 0 -209.92zm167.94 83.97l0 41.98 125.95 0 0 20.99 -125.95 0 0 104.96 167.94 0 0 -167.94 -167.94 0zm125.95 125.95l-83.97 0 0 -20.99 83.97 0 0 20.99zm209.92 -209.92l-41.98 0 0 251.9 41.98 0 0 -125.95 125.95 0 0 -125.95 -125.95 0zm83.97 83.97l-83.97 0 0 -41.98 83.97 0 0 41.98zm83.97 0l0 41.98 125.95 0 0 20.99 -125.95 0 0 104.96 167.94 0 0 -167.94 -167.94 0zm125.95 125.95l-83.97 0 0 -20.99 83.97 0 0 20.99zm83.97 41.98l41.98 0 0 -251.9 -41.98 0 0 251.9zm83.97 -167.94l0 41.98 125.95 0 0 20.99 -125.95 0 0 104.96 167.94 0 0 -167.94 -167.94 0zm125.95 125.95l-83.97 0 0 -20.99 83.97 0 0 20.99zm209.92 41.98l41.98 0 0 -167.94 -125.95 0 0 -83.97 -41.98 0 0 251.9 125.95 0zm-83.97 -125.95l83.97 0 0 83.97 -83.97 0 0 -83.97zm209.92 0l125.95 0 0 -41.98 -125.95 0 -41.98 0 0 41.98 0 125.95 41.98 0 0 -125.95zm167.94 -41.98l0 41.98 125.95 0 0 20.99 -125.95 0 0 104.96 167.94 0 0 -167.94 -167.94 0zm125.95 125.95l-83.97 0 0 -20.99 83.97 0 0 20.99z"/>
  <path class="fil3" d="M123.85 200.95l-41.98 0 0 209.92 0 41.98 41.98 0 125.95 0 0 -41.98 -125.95 0 0 -209.92zm167.94 83.97l0 41.98 125.95 0 0 20.99 -125.95 0 0 104.96 167.93 0 0 -167.93 -167.93 0zm125.95 125.95l-83.97 0 0 -20.99 83.97 0 0 20.99zm209.92 -209.92l-41.98 0 0 251.9 41.98 0 0 -125.95 125.95 0 0 -125.95 -125.95 0zm83.97 83.97l-83.97 0 0 -41.98 83.97 0 0 41.98zm83.97 0l0 41.98 125.95 0 0 20.99 -125.95 0 0 104.96 167.93 0 0 -167.93 -167.93 0zm125.95 125.95l-83.97 0 0 -20.99 83.97 0 0 20.99zm83.97 41.98l41.98 0 0 -251.9 -41.98 0 0 251.9zm83.97 -167.93l0 41.98 125.95 0 0 20.99 -125.95 0 0 104.96 167.93 0 0 -167.93 -167.93 0zm125.95 125.95l-83.97 0 0 -20.99 83.97 0 0 20.99zm209.92 41.98l41.98 0 0 -167.93 -125.95 0 0 -83.97 -41.98 0 0 251.9 125.95 0zm-83.97 -125.95l83.97 0 0 83.97 -83.97 0 0 -83.97zm209.92 0l125.95 0 0 -41.98 -125.95 0 -41.98 0 0 41.98 0 125.95 41.98 0 0 -125.95zm167.94 -41.98l0 41.98 125.95 0 0 20.99 -125.95 0 0 104.96 167.93 0 0 -167.93 -167.93 0zm125.95 125.95l-83.97 0 0 -20.99 83.97 0 0 20.99z"/>
 </g>
</svg>
