<?xml version="1.0" encoding="UTF-8"?>
<!DOCTYPE svg PUBLIC "-//W3C//DTD SVG 1.1//EN" "http://www.w3.org/Graphics/SVG/1.1/DTD/svg11.dtd">
<!-- Creator: CorelDRAW 2021 (64-Bit) -->
<svg xmlns="http://www.w3.org/2000/svg" xml:space="preserve" width="1.0359in" height="1.0359in" version="1.1" style="shape-rendering:geometricPrecision; text-rendering:geometricPrecision; image-rendering:optimizeQuality; fill-rule:evenodd; clip-rule:evenodd"
viewBox="0 0 103.19 103.19"
 xmlns:xlink="http://www.w3.org/1999/xlink"
 xmlns:xodm="http://www.corel.com/coreldraw/odm/2003">
 <defs>
  <style type="text/css">
   <![CDATA[
    .fil2 {fill:#1E2220}
    .fil0 {fill:#FFD541}
    .fil1 {fill:#1E2220;fill-rule:nonzero}
   ]]>
  </style>
 </defs>
 <g id="Layer_x0020_1">
  <metadata id="CorelCorpID_0Corel-Layer"/>
  <g id="_2258492953296">
   <rect class="fil0" x="-0" y="-0" width="103.19" height="103.19" rx="11.37" ry="14.44"/>
  </g>
  <g id="_2258492953056">
   <g>
    <g>
     <path class="fil1" d="M41.07 10.84l-30.23 30.02 -2.6 -2.62 30.23 -30.02 0 0 2.6 2.62zm-2.6 -2.62c0.72,-0.72 1.89,-0.71 2.61,0.01 0.72,0.72 0.72,1.89 -0.01,2.61l-2.6 -2.62zm8.4 0.03l-2.61 2.6 0 0 -0.08 -0.08 -0.09 -0.07 -0.09 -0.07 -0.09 -0.06 -0.09 -0.06 -0.1 -0.05 -0.1 -0.05 -0.1 -0.04 -0.1 -0.04 -0.1 -0.03 -0.11 -0.03 -0.11 -0.02 -0.11 -0.02 -0.11 -0.01 -0.11 -0.01 -0.11 -0 -0.11 0 -0.11 0.01 -0.11 0.01 -0.11 0.02 -0.11 0.02 -0.11 0.03 -0.1 0.03 -0.1 0.04 -0.1 0.04 -0.1 0.05 -0.1 0.05 -0.09 0.06 -0.09 0.06 -0.09 0.07 -0.09 0.07 -0.09 0.08 -2.6 -2.62 0.22 -0.21 0.23 -0.2 0.24 -0.18 0.24 -0.17 0.25 -0.16 0.26 -0.14 0.26 -0.13 0.27 -0.11 0.27 -0.1 0.27 -0.09 0.28 -0.07 0.28 -0.06 0.28 -0.05 0.28 -0.03 0.28 -0.02 0.29 -0.01 0.28 0.01 0.28 0.02 0.28 0.03 0.28 0.05 0.28 0.06 0.28 0.08 0.27 0.09 0.27 0.1 0.27 0.12 0.26 0.13 0.25 0.14 0.25 0.16 0.24 0.17 0.24 0.18 0.23 0.2 0.22 0.21 0 0zm0 0c0.72,0.72 0.72,1.89 -0.01,2.61 -0.72,0.72 -1.89,0.71 -2.61,-0.01l2.61 -2.6zm24.62 30.02l-27.24 -27.42 2.61 -2.6 27.24 27.42 0 0 -2.61 2.6zm2.61 -2.6c0.72,0.72 0.72,1.89 -0.01,2.61 -0.72,0.72 -1.89,0.71 -2.61,-0.01l2.61 -2.6zm-0.03 8.4l-2.6 -2.62 0 0 0.08 -0.08 0.07 -0.09 0.07 -0.09 0.06 -0.09 0.06 -0.09 0.05 -0.1 0.05 -0.1 0.04 -0.1 0.04 -0.1 0.03 -0.1 0.03 -0.1 0.02 -0.11 0.02 -0.11 0.01 -0.11 0.01 -0.11 0 -0.11 -0 -0.11 -0.01 -0.11 -0.01 -0.11 -0.02 -0.11 -0.02 -0.11 -0.03 -0.11 -0.03 -0.11 -0.04 -0.1 -0.04 -0.1 -0.05 -0.1 -0.05 -0.1 -0.06 -0.09 -0.06 -0.09 -0.07 -0.09 -0.07 -0.09 -0.08 -0.08 2.61 -2.6 0.21 0.22 0.2 0.23 0.18 0.24 0.17 0.24 0.16 0.25 0.14 0.26 0.13 0.26 0.11 0.27 0.1 0.27 0.09 0.27 0.07 0.28 0.06 0.28 0.05 0.28 0.03 0.28 0.02 0.28 0.01 0.28 -0.01 0.29 -0.02 0.28 -0.03 0.28 -0.05 0.28 -0.06 0.28 -0.08 0.28 -0.09 0.27 -0.1 0.27 -0.12 0.27 -0.13 0.26 -0.14 0.26 -0.16 0.25 -0.17 0.24 -0.18 0.23 -0.2 0.23 -0.21 0.22 0 0zm0 0c-0.72,0.72 -1.89,0.71 -2.61,-0.01 -0.72,-0.72 -0.72,-1.89 0.01,-2.61l2.6 2.62zm-32.83 27.4l30.23 -30.02 2.6 2.62 -30.23 30.02 -2.6 -2.62zm2.6 2.62c-0.72,0.72 -1.89,0.71 -2.61,-0.01 -0.72,-0.72 -0.72,-1.89 0.01,-2.61l2.6 2.62zm-8.4 -0.03l2.61 -2.6 0 0 0.08 0.08 0.09 0.07 0.09 0.07 0.09 0.06 0.09 0.06 0.1 0.05 0.1 0.05 0.1 0.04 0.1 0.04 0.1 0.03 0.11 0.03 0.11 0.02 0.11 0.02 0.11 0.01 0.11 0.01 0.11 0 0.11 -0 0.11 -0.01 0.11 -0.01 0.11 -0.02 0.11 -0.02 0.11 -0.03 0.1 -0.03 0.1 -0.04 0.1 -0.04 0.1 -0.05 0.1 -0.05 0.09 -0.06 0.09 -0.06 0.09 -0.07 0.09 -0.07 0.08 -0.08 2.6 2.62 -0.22 0.21 -0.23 0.2 -0.24 0.18 -0.24 0.17 -0.25 0.16 -0.26 0.14 -0.26 0.13 -0.27 0.11 -0.27 0.1 -0.28 0.09 -0.28 0.07 -0.28 0.06 -0.28 0.05 -0.28 0.03 -0.28 0.02 -0.29 0.01 -0.28 -0.01 -0.28 -0.02 -0.28 -0.03 -0.28 -0.05 -0.28 -0.06 -0.28 -0.08 -0.27 -0.09 -0.27 -0.1 -0.27 -0.12 -0.26 -0.13 -0.25 -0.14 -0.25 -0.16 -0.24 -0.17 -0.24 -0.18 -0.23 -0.2 -0.22 -0.21 0 0zm0 0c-0.72,-0.72 -0.72,-1.89 0.01,-2.61 0.72,-0.72 1.89,-0.71 2.61,0.01l-2.61 2.6zm-24.62 -30.02l27.24 27.42 -2.61 2.6 -27.24 -27.42 -0 0 2.61 -2.6zm-2.61 2.6c-0.72,-0.72 -0.72,-1.89 0.01,-2.61 0.72,-0.72 1.89,-0.71 2.61,0.01l-2.61 2.6zm0.03 -8.4l2.6 2.62 0 0 -0.08 0.08 -0.07 0.09 -0.07 0.09 -0.06 0.09 -0.06 0.09 -0.05 0.1 -0.05 0.1 -0.04 0.1 -0.04 0.1 -0.03 0.1 -0.03 0.1 -0.02 0.11 -0.02 0.11 -0.01 0.11 -0.01 0.11 -0 0.11 0 0.11 0.01 0.11 0.01 0.11 0.02 0.11 0.02 0.11 0.03 0.11 0.03 0.11 0.04 0.1 0.04 0.1 0.05 0.1 0.05 0.1 0.06 0.09 0.06 0.09 0.07 0.09 0.07 0.09 0.08 0.08 -2.61 2.6 -0.21 -0.22 -0.2 -0.23 -0.18 -0.24 -0.17 -0.24 -0.16 -0.25 -0.14 -0.26 -0.13 -0.26 -0.11 -0.27 -0.1 -0.27 -0.09 -0.27 -0.07 -0.28 -0.06 -0.28 -0.05 -0.28 -0.03 -0.28 -0.02 -0.28 -0.01 -0.28 0.01 -0.29 0.02 -0.28 0.03 -0.28 0.05 -0.28 0.06 -0.28 0.08 -0.28 0.09 -0.27 0.1 -0.27 0.12 -0.27 0.13 -0.26 0.14 -0.26 0.16 -0.25 0.17 -0.24 0.18 -0.23 0.2 -0.23 0.21 -0.22 0 0zm0 0c0.72,-0.72 1.89,-0.71 2.61,0.01 0.72,0.72 0.72,1.89 -0.01,2.61l-2.6 -2.62z"/>
    </g>
    <rect class="fil2" transform="matrix(5.86586 -5.93164 5.93164 5.86586 39.9323 18.8224)" width="0.44" height="3.83" rx="0.07" ry="0.07"/>
    <path class="fil1" d="M24.94 35.45l-3.74 3.85 3.85 3.74 3.85 3.74 3.74 -3.85 -3.85 -3.74 7.48 -7.71 3.85 3.74 -1.87 1.93 -3.74 3.85 3.86 3.74c1.28,1.25 2.57,2.49 3.85,3.74 4.46,-4.6 4.48,-3.13 -0.11,-7.59l1.87 -1.93c4.46,-4.6 4.48,-3.13 -0.12,-7.59l-3.85 -3.74c-4.6,-4.46 -3.14,-4.48 -7.59,0.12l-7.48 7.71zm25 20.51l3.74 -3.85 -3.85 -3.74 -3.74 3.85 3.86 3.74z"/>
   </g>
   <rect class="fil2" transform="matrix(4.59006 -4.59006 4.59006 4.59006 61.5074 70.5272)" width="1.97" height="5.36" rx="0.11" ry="0.11"/>
   <rect class="fil2" transform="matrix(2.24651 -2.24651 2.37508 2.37508 55.3803 59.7918)" width="1.97" height="5.36"/>
  </g>
 </g>
</svg>
