<?xml version="1.0" encoding="UTF-8"?>
<!DOCTYPE svg PUBLIC "-//W3C//DTD SVG 1.1//EN" "http://www.w3.org/Graphics/SVG/1.1/DTD/svg11.dtd">
<!-- Creator: CorelDRAW 2021 (64-Bit) -->
<svg xmlns="http://www.w3.org/2000/svg" xml:space="preserve" width="0.4765in" height="0.4765in" version="1.1" style="shape-rendering:geometricPrecision; text-rendering:geometricPrecision; image-rendering:optimizeQuality; fill-rule:evenodd; clip-rule:evenodd"
viewBox="0 0 44.41 44.41"
 xmlns:xlink="http://www.w3.org/1999/xlink"
 xmlns:xodm="http://www.corel.com/coreldraw/odm/2003">
 <defs>
  <style type="text/css">
   <![CDATA[
    .fil0 {fill:#1E2220}
    .fil1 {fill:white}
   ]]>
  </style>
 </defs>
 <g id="Layer_x0020_1">
  <metadata id="CorelCorpID_0Corel-Layer"/>
  <g id="_2293471961360">
   <rect class="fil0" x="-0" y="-0" width="44.41" height="44.41" rx="4.9" ry="6.21"/>
   <g>
    <path class="fil1" d="M21.13 17.46c6.16,-1.68 8.65,7.84 2.55,9.36 -6.73,1.68 -9.26,-7.53 -2.55,-9.36zm8.55 2.91l1.88 -0.53 0.02 11.62 -18.64 0.13 -0.13 -11.68 1.96 0.39c-2.49,13.24 17.8,12.14 14.92,0.07zm1.78 -7.38c0.2,2.67 0.33,1.98 -0.2,4.46 -4.83,0.22 -4.6,0.69 -4.22,-4.47l4.42 0.01zm-21.73 0.69l0 17.03c0,3.02 0.93,3.96 3.96,3.96l17.05 0c2.98,0 3.93,-0.95 3.93,-3.96l0 -17.03c0,-3 -0.95,-3.95 -3.95,-3.95l-17.03 0c-3.01,0 -3.96,0.93 -3.96,3.95z"/>
    <path class="fil0" d="M29.67 20.37c2.89,12.07 -17.4,13.17 -14.92,-0.07l-1.96 -0.39 0.13 11.68 18.64 -0.13 -0.02 -11.62 -1.88 0.53z"/>
    <path class="fil0" d="M21.13 17.46c-6.71,1.83 -4.19,11.04 2.55,9.36 6.1,-1.52 3.61,-11.04 -2.55,-9.36z"/>
    <path class="fil0" d="M27.03 12.98c-0.38,5.16 -0.61,4.69 4.22,4.47 0.53,-2.48 0.4,-1.79 0.2,-4.46l-4.42 -0.01z"/>
   </g>
  </g>
 </g>
</svg>
