<?xml version="1.0" encoding="UTF-8"?>
<!DOCTYPE svg PUBLIC "-//W3C//DTD SVG 1.1//EN" "http://www.w3.org/Graphics/SVG/1.1/DTD/svg11.dtd">
<!-- Creator: CorelDRAW 2021 (64-Bit) -->
<svg xmlns="http://www.w3.org/2000/svg" xml:space="preserve" width="0.333331in" height="0.5in" version="1.1" style="shape-rendering:geometricPrecision; text-rendering:geometricPrecision; image-rendering:optimizeQuality; fill-rule:evenodd; clip-rule:evenodd"
viewBox="0 0 10.05 15.07"
 xmlns:xlink="http://www.w3.org/1999/xlink"
 xmlns:xodm="http://www.corel.com/coreldraw/odm/2003">
 <defs>
  <style type="text/css">
   <![CDATA[
    .fil0 {fill:#1E2220}
   ]]>
  </style>
 </defs>
 <g id="Layer_x0020_1">
  <metadata id="CorelCorpID_0Corel-Layer"/>
  <path class="fil0" d="M7.56 7.43c-0.01,0.09 -0.05,0.17 -0.1,0.24 -0.05,0.07 -0.12,0.13 -0.2,0.18 -0.16,0.1 -0.3,0.15 -0.44,0.2 -0.3,0.1 -0.62,0.2 -0.95,0.32 -0.35,0.12 -0.67,0.23 -0.95,0.32 -0.35,0.12 -0.69,0.22 -1.01,0.33 -0.24,0.1 -0.46,0.23 -0.67,0.39 -0.19,0.17 -0.36,0.36 -0.49,0.57 -0.14,0.23 -0.23,0.54 -0.23,0.89 0,0.7 0.18,1.24 0.53,1.58 0.35,0.35 1.01,0.52 1.97,0.52 0.99,0 1.66,-0.18 2.01,-0.55 0.35,-0.37 0.53,-0.89 0.53,-1.56l0 -3.42 0 0zm-2.54 -7.43c1.73,0 3,0.32 3.81,0.97 0.81,0.64 1.22,1.46 1.22,2.43l0 8.28c0,0.33 -0.07,0.7 -0.19,1.11 -0.12,0.4 -0.37,0.77 -0.76,1.11 -0.37,0.34 -0.88,0.62 -1.53,0.84 -0.65,0.22 -1.5,0.33 -2.54,0.33 -1.04,0 -1.89,-0.12 -2.54,-0.33 -0.65,-0.22 -1.16,-0.5 -1.53,-0.84 -0.34,-0.3 -0.6,-0.68 -0.76,-1.11 -0.12,-0.4 -0.2,-0.77 -0.2,-1.1l0 -1.32c0,-0.7 0.19,-1.36 0.58,-1.93 0.39,-0.59 0.93,-0.99 1.64,-1.24 0.35,-0.12 0.76,-0.23 1.22,-0.39 0.46,-0.15 0.88,-0.3 1.3,-0.44 0.42,-0.13 0.79,-0.27 1.11,-0.39 0.19,-0.07 0.39,-0.14 0.58,-0.2l0.32 -0.15c0.12,-0.07 0.25,-0.17 0.37,-0.3 0.12,-0.13 0.23,-0.28 0.32,-0.45 0.09,-0.18 0.14,-0.38 0.14,-0.59l0 -0.54c0,-0.2 -0.04,-0.39 -0.12,-0.57 -0.07,-0.2 -0.21,-0.39 -0.4,-0.55 -0.19,-0.17 -0.46,-0.3 -0.78,-0.4 -0.32,-0.1 -0.74,-0.15 -1.22,-0.15 -0.99,0 -1.64,0.19 -1.99,0.57 -0.3,0.34 -0.48,0.75 -0.51,1.22 0,0.1 -0.09,0.17 -0.19,0.17l-2.15 0.03c-0.05,0 -0.1,-0.02 -0.14,-0.05 -0.04,-0.03 -0.06,-0.08 -0.06,-0.13l0 -0.48c0,-0.47 0.09,-0.91 0.28,-1.33 0.19,-0.42 0.49,-0.77 0.9,-1.07 0.41,-0.3 0.93,-0.55 1.57,-0.72 0.62,-0.2 1.38,-0.28 2.26,-0.28l-0 0z"/>
 </g>
</svg>
