<?xml version="1.0" encoding="UTF-8"?>
<!DOCTYPE svg PUBLIC "-//W3C//DTD SVG 1.1//EN" "http://www.w3.org/Graphics/SVG/1.1/DTD/svg11.dtd">
<!-- Creator: CorelDRAW 2021 (64-Bit) -->
<svg xmlns="http://www.w3.org/2000/svg" xml:space="preserve" width="0.4765in" height="0.4765in" version="1.1" style="shape-rendering:geometricPrecision; text-rendering:geometricPrecision; image-rendering:optimizeQuality; fill-rule:evenodd; clip-rule:evenodd"
viewBox="0 0 27.52 27.52"
 xmlns:xlink="http://www.w3.org/1999/xlink"
 xmlns:xodm="http://www.corel.com/coreldraw/odm/2003">
 <defs>
  <style type="text/css">
   <![CDATA[
    .fil0 {fill:#1E2220}
    .fil1 {fill:#F0F2F2}
   ]]>
  </style>
 </defs>
 <g id="Layer_x0020_1">
  <metadata id="CorelCorpID_0Corel-Layer"/>
  <g id="_2293473913824">
   <rect class="fil0" x="-0" y="-0" width="27.52" height="27.52" rx="3.03" ry="3.85"/>
   <g>
    <path class="fil1" d="M15.29 11.95l-0.01 -1.44 -3.46 0 0 10.4 3.45 0.01c0,-1.62 0,-3.25 0,-4.87 0,-0.77 -0.08,-1.52 0.29,-2.12 0.27,-0.43 0.75,-0.89 1.5,-0.92 1.69,-0.06 1.85,1.45 1.85,2.99 -0,1.64 0,3.28 0,4.93l3.46 0c0,-1.62 0,-3.25 0,-4.87 0,-1.58 0,-2.92 -0.75,-4.11 -1.1,-1.75 -3.59,-2.11 -5.16,-1.17 -0.35,0.21 -1.01,0.85 -1.19,1.19z"/>
    <polygon class="fil1" points="6.44,20.91 9.91,20.92 9.91,10.51 6.45,10.51 "/>
    <path class="fil1" d="M7.65 5.58c-2.37,0.57 -1.58,4.08 1.09,3.44 2.3,-0.55 1.6,-4.09 -1.09,-3.44z"/>
   </g>
  </g>
 </g>
</svg>
