<?xml version="1.0" encoding="UTF-8"?>
<!DOCTYPE svg PUBLIC "-//W3C//DTD SVG 1.1//EN" "http://www.w3.org/Graphics/SVG/1.1/DTD/svg11.dtd">
<!-- Creator: CorelDRAW 2021 (64-Bit) -->
<svg xmlns="http://www.w3.org/2000/svg" xml:space="preserve" width="0.4765in" height="0.4765in" version="1.1" style="shape-rendering:geometricPrecision; text-rendering:geometricPrecision; image-rendering:optimizeQuality; fill-rule:evenodd; clip-rule:evenodd"
viewBox="0 0 62.22 62.22"
 xmlns:xlink="http://www.w3.org/1999/xlink"
 xmlns:xodm="http://www.corel.com/coreldraw/odm/2003">
 <defs>
  <style type="text/css">
   <![CDATA[
    .fil0 {fill:#1E2220}
    .fil1 {fill:#F9F9FA}
   ]]>
  </style>
 </defs>
 <g id="Layer_x0020_1">
  <metadata id="CorelCorpID_0Corel-Layer"/>
  <g id="_2293472717856">
   <rect class="fil0" x="-0" y="-0" width="62.22" height="62.22" rx="6.86" ry="8.7"/>
   <path class="fil1" d="M21.48 18.63c-2.88,2 -2.93,9.5 -1.84,12.43 1.32,3.55 4.71,5.77 9.34,6.33 -0.61,1.53 -0.82,0.85 -1.18,3.82 -6.29,1.66 -6.88,-2.44 -8.77,-4.08 -0.69,-0.6 -2.38,-1.51 -3.61,-0.83 0.06,0.68 0.79,0.81 1.27,1.35 2.48,2.77 2.5,6.01 6.34,7.21 1.82,0.57 2.95,0.36 4.81,0.13l-0 4.99c2.64,0.13 7.35,0.08 10.11,0.02 -0.01,-2.7 0.24,-8.75 -0.34,-10.74 -0.24,-0.83 -0.64,-1.35 -0.81,-1.88 4.65,-0.52 7.92,-2.77 9.3,-6.24 1.13,-2.85 1.11,-10.45 -1.8,-12.51 0.13,-1.18 0.6,-1.76 0.58,-3.31 -0.03,-1.39 -0.37,-2.03 -0.62,-3.17 -1.32,0.14 -2.22,0.75 -2.98,1.39 -1.21,1.01 -1.27,1.42 -1.92,2.12 -0.14,0.15 -0.08,0.1 -0.21,0.19 -2.21,-1.39 -7.01,-1.4 -9.82,-0.96 -1.54,0.24 -1.71,0.53 -2.84,1 -0.31,-0.79 -1.41,-1.84 -1.98,-2.33 -0.84,-0.71 -1.57,-1.25 -2.97,-1.41 -0.25,1.15 -0.6,1.77 -0.62,3.17 -0.03,1.56 0.44,2.11 0.58,3.3z"/>
  </g>
 </g>
</svg>
